G04 #@! TF.FileFunction,Legend,Top*
%FSLAX46Y46*%
G04 Gerber Fmt 4.6, Leading zero omitted, Abs format (unit mm)*
G04 Created by KiCad (PCBNEW 4.0.4-stable) date 06/20/17 22:04:30*
%MOMM*%
%LPD*%
G01*
G04 APERTURE LIST*
%ADD10C,0.100000*%
%ADD11C,0.230000*%
%ADD12C,0.150000*%
%ADD13C,0.300000*%
%ADD14C,0.120000*%
%ADD15C,0.500000*%
G04 APERTURE END LIST*
D10*
D11*
X32909072Y-48087786D02*
X33170977Y-48821119D01*
X33432881Y-48087786D01*
X34061453Y-47721119D02*
X34166214Y-47721119D01*
X34270976Y-47773500D01*
X34323357Y-47825881D01*
X34375738Y-47930643D01*
X34428119Y-48140167D01*
X34428119Y-48402071D01*
X34375738Y-48611595D01*
X34323357Y-48716357D01*
X34270976Y-48768738D01*
X34166214Y-48821119D01*
X34061453Y-48821119D01*
X33956691Y-48768738D01*
X33904310Y-48716357D01*
X33851929Y-48611595D01*
X33799548Y-48402071D01*
X33799548Y-48140167D01*
X33851929Y-47930643D01*
X33904310Y-47825881D01*
X33956691Y-47773500D01*
X34061453Y-47721119D01*
X34899548Y-48716357D02*
X34951929Y-48768738D01*
X34899548Y-48821119D01*
X34847167Y-48768738D01*
X34899548Y-48716357D01*
X34899548Y-48821119D01*
X35999548Y-48821119D02*
X35370977Y-48821119D01*
X35685263Y-48821119D02*
X35685263Y-47721119D01*
X35580501Y-47878262D01*
X35475739Y-47983024D01*
X35370977Y-48035405D01*
X31759905Y-46070119D02*
X31550382Y-46070119D01*
X31445620Y-46122500D01*
X31393239Y-46174881D01*
X31288477Y-46332024D01*
X31236096Y-46541548D01*
X31236096Y-46960595D01*
X31288477Y-47065357D01*
X31340858Y-47117738D01*
X31445620Y-47170119D01*
X31655143Y-47170119D01*
X31759905Y-47117738D01*
X31812286Y-47065357D01*
X31864667Y-46960595D01*
X31864667Y-46698690D01*
X31812286Y-46593929D01*
X31759905Y-46541548D01*
X31655143Y-46489167D01*
X31445620Y-46489167D01*
X31340858Y-46541548D01*
X31288477Y-46593929D01*
X31236096Y-46698690D01*
X33121810Y-46017738D02*
X32178953Y-47432024D01*
X33436096Y-46174881D02*
X33488477Y-46122500D01*
X33593239Y-46070119D01*
X33855143Y-46070119D01*
X33959905Y-46122500D01*
X34012286Y-46174881D01*
X34064667Y-46279643D01*
X34064667Y-46384405D01*
X34012286Y-46541548D01*
X33383715Y-47170119D01*
X34064667Y-47170119D01*
X34745620Y-46070119D02*
X34850381Y-46070119D01*
X34955143Y-46122500D01*
X35007524Y-46174881D01*
X35059905Y-46279643D01*
X35112286Y-46489167D01*
X35112286Y-46751071D01*
X35059905Y-46960595D01*
X35007524Y-47065357D01*
X34955143Y-47117738D01*
X34850381Y-47170119D01*
X34745620Y-47170119D01*
X34640858Y-47117738D01*
X34588477Y-47065357D01*
X34536096Y-46960595D01*
X34483715Y-46751071D01*
X34483715Y-46489167D01*
X34536096Y-46279643D01*
X34588477Y-46174881D01*
X34640858Y-46122500D01*
X34745620Y-46070119D01*
X36369429Y-46017738D02*
X35426572Y-47432024D01*
X37312286Y-47170119D02*
X36683715Y-47170119D01*
X36998001Y-47170119D02*
X36998001Y-46070119D01*
X36893239Y-46227262D01*
X36788477Y-46332024D01*
X36683715Y-46384405D01*
X37678953Y-46070119D02*
X38412286Y-46070119D01*
X37940858Y-47170119D01*
D12*
X28644905Y-48945667D02*
X29444905Y-48679000D01*
X28644905Y-48412333D01*
X29444905Y-48145667D02*
X28644905Y-48145667D01*
X28644905Y-47955191D01*
X28683000Y-47840905D01*
X28759190Y-47764714D01*
X28835381Y-47726619D01*
X28987762Y-47688524D01*
X29102048Y-47688524D01*
X29254429Y-47726619D01*
X29330619Y-47764714D01*
X29406810Y-47840905D01*
X29444905Y-47955191D01*
X29444905Y-48145667D01*
X29444905Y-47345667D02*
X28644905Y-47345667D01*
X28644905Y-47155191D01*
X28683000Y-47040905D01*
X28759190Y-46964714D01*
X28835381Y-46926619D01*
X28987762Y-46888524D01*
X29102048Y-46888524D01*
X29254429Y-46926619D01*
X29330619Y-46964714D01*
X29406810Y-47040905D01*
X29444905Y-47155191D01*
X29444905Y-47345667D01*
X39566905Y-48869476D02*
X39566905Y-48374238D01*
X39871667Y-48640905D01*
X39871667Y-48526619D01*
X39909762Y-48450429D01*
X39947857Y-48412333D01*
X40024048Y-48374238D01*
X40214524Y-48374238D01*
X40290714Y-48412333D01*
X40328810Y-48450429D01*
X40366905Y-48526619D01*
X40366905Y-48755191D01*
X40328810Y-48831381D01*
X40290714Y-48869476D01*
X39566905Y-48145667D02*
X40366905Y-47879000D01*
X39566905Y-47612333D01*
X39566905Y-47421857D02*
X39566905Y-46926619D01*
X39871667Y-47193286D01*
X39871667Y-47079000D01*
X39909762Y-47002810D01*
X39947857Y-46964714D01*
X40024048Y-46926619D01*
X40214524Y-46926619D01*
X40290714Y-46964714D01*
X40328810Y-47002810D01*
X40366905Y-47079000D01*
X40366905Y-47307572D01*
X40328810Y-47383762D01*
X40290714Y-47421857D01*
X41681477Y-16999000D02*
X41605286Y-16960905D01*
X41491001Y-16960905D01*
X41376715Y-16999000D01*
X41300524Y-17075190D01*
X41262429Y-17151381D01*
X41224334Y-17303762D01*
X41224334Y-17418048D01*
X41262429Y-17570429D01*
X41300524Y-17646619D01*
X41376715Y-17722810D01*
X41491001Y-17760905D01*
X41567191Y-17760905D01*
X41681477Y-17722810D01*
X41719572Y-17684714D01*
X41719572Y-17418048D01*
X41567191Y-17418048D01*
X42062429Y-17760905D02*
X42062429Y-16960905D01*
X42519572Y-17760905D01*
X42519572Y-16960905D01*
X42900524Y-17760905D02*
X42900524Y-16960905D01*
X43091000Y-16960905D01*
X43205286Y-16999000D01*
X43281477Y-17075190D01*
X43319572Y-17151381D01*
X43357667Y-17303762D01*
X43357667Y-17418048D01*
X43319572Y-17570429D01*
X43281477Y-17646619D01*
X43205286Y-17722810D01*
X43091000Y-17760905D01*
X42900524Y-17760905D01*
X26187477Y-16999000D02*
X26111286Y-16960905D01*
X25997001Y-16960905D01*
X25882715Y-16999000D01*
X25806524Y-17075190D01*
X25768429Y-17151381D01*
X25730334Y-17303762D01*
X25730334Y-17418048D01*
X25768429Y-17570429D01*
X25806524Y-17646619D01*
X25882715Y-17722810D01*
X25997001Y-17760905D01*
X26073191Y-17760905D01*
X26187477Y-17722810D01*
X26225572Y-17684714D01*
X26225572Y-17418048D01*
X26073191Y-17418048D01*
X26568429Y-17760905D02*
X26568429Y-16960905D01*
X27025572Y-17760905D01*
X27025572Y-16960905D01*
X27406524Y-17760905D02*
X27406524Y-16960905D01*
X27597000Y-16960905D01*
X27711286Y-16999000D01*
X27787477Y-17075190D01*
X27825572Y-17151381D01*
X27863667Y-17303762D01*
X27863667Y-17418048D01*
X27825572Y-17570429D01*
X27787477Y-17646619D01*
X27711286Y-17722810D01*
X27597000Y-17760905D01*
X27406524Y-17760905D01*
D11*
X30487691Y-44101619D02*
X30749596Y-45201619D01*
X30959119Y-44415905D01*
X31168643Y-45201619D01*
X31430548Y-44101619D01*
X31849596Y-45201619D02*
X31849596Y-44468286D01*
X31849596Y-44101619D02*
X31797215Y-44154000D01*
X31849596Y-44206381D01*
X31901977Y-44154000D01*
X31849596Y-44101619D01*
X31849596Y-44206381D01*
X32844834Y-44468286D02*
X32844834Y-45358762D01*
X32792453Y-45463524D01*
X32740072Y-45515905D01*
X32635311Y-45568286D01*
X32478168Y-45568286D01*
X32373406Y-45515905D01*
X32844834Y-45149238D02*
X32740072Y-45201619D01*
X32530549Y-45201619D01*
X32425787Y-45149238D01*
X32373406Y-45096857D01*
X32321025Y-44992095D01*
X32321025Y-44677810D01*
X32373406Y-44573048D01*
X32425787Y-44520667D01*
X32530549Y-44468286D01*
X32740072Y-44468286D01*
X32844834Y-44520667D01*
X33840072Y-44468286D02*
X33840072Y-45358762D01*
X33787691Y-45463524D01*
X33735310Y-45515905D01*
X33630549Y-45568286D01*
X33473406Y-45568286D01*
X33368644Y-45515905D01*
X33840072Y-45149238D02*
X33735310Y-45201619D01*
X33525787Y-45201619D01*
X33421025Y-45149238D01*
X33368644Y-45096857D01*
X33316263Y-44992095D01*
X33316263Y-44677810D01*
X33368644Y-44573048D01*
X33421025Y-44520667D01*
X33525787Y-44468286D01*
X33735310Y-44468286D01*
X33840072Y-44520667D01*
X34521025Y-45201619D02*
X34416263Y-45149238D01*
X34363882Y-45044476D01*
X34363882Y-44101619D01*
X35359119Y-45149238D02*
X35254357Y-45201619D01*
X35044834Y-45201619D01*
X34940072Y-45149238D01*
X34887691Y-45044476D01*
X34887691Y-44625429D01*
X34940072Y-44520667D01*
X35044834Y-44468286D01*
X35254357Y-44468286D01*
X35359119Y-44520667D01*
X35411500Y-44625429D01*
X35411500Y-44730190D01*
X34887691Y-44834952D01*
X36406738Y-45201619D02*
X35882929Y-45201619D01*
X35882929Y-44101619D01*
X37244833Y-45201619D02*
X37244833Y-44625429D01*
X37192452Y-44520667D01*
X37087690Y-44468286D01*
X36878167Y-44468286D01*
X36773405Y-44520667D01*
X37244833Y-45149238D02*
X37140071Y-45201619D01*
X36878167Y-45201619D01*
X36773405Y-45149238D01*
X36721024Y-45044476D01*
X36721024Y-44939714D01*
X36773405Y-44834952D01*
X36878167Y-44782571D01*
X37140071Y-44782571D01*
X37244833Y-44730190D01*
X37768643Y-45201619D02*
X37768643Y-44101619D01*
X37768643Y-44520667D02*
X37873405Y-44468286D01*
X38082928Y-44468286D01*
X38187690Y-44520667D01*
X38240071Y-44573048D01*
X38292452Y-44677810D01*
X38292452Y-44992095D01*
X38240071Y-45096857D01*
X38187690Y-45149238D01*
X38082928Y-45201619D01*
X37873405Y-45201619D01*
X37768643Y-45149238D01*
X38711500Y-45149238D02*
X38816262Y-45201619D01*
X39025786Y-45201619D01*
X39130547Y-45149238D01*
X39182928Y-45044476D01*
X39182928Y-44992095D01*
X39130547Y-44887333D01*
X39025786Y-44834952D01*
X38868643Y-44834952D01*
X38763881Y-44782571D01*
X38711500Y-44677810D01*
X38711500Y-44625429D01*
X38763881Y-44520667D01*
X38868643Y-44468286D01*
X39025786Y-44468286D01*
X39130547Y-44520667D01*
D13*
X30044048Y-42721643D02*
X30044048Y-43554976D01*
X30044048Y-42840690D02*
X30103572Y-42781167D01*
X30222619Y-42721643D01*
X30401191Y-42721643D01*
X30520239Y-42781167D01*
X30579762Y-42900214D01*
X30579762Y-43554976D01*
X31175000Y-43554976D02*
X31175000Y-42721643D01*
X31175000Y-42959738D02*
X31234524Y-42840690D01*
X31294048Y-42781167D01*
X31413095Y-42721643D01*
X31532143Y-42721643D01*
X31770239Y-42721643D02*
X32246429Y-42721643D01*
X31948810Y-43554976D02*
X31948810Y-42483548D01*
X32008334Y-42364500D01*
X32127381Y-42304976D01*
X32246429Y-42304976D01*
X33258334Y-42304976D02*
X32663096Y-42304976D01*
X32603572Y-42900214D01*
X32663096Y-42840690D01*
X32782144Y-42781167D01*
X33079763Y-42781167D01*
X33198810Y-42840690D01*
X33258334Y-42900214D01*
X33317858Y-43019262D01*
X33317858Y-43316881D01*
X33258334Y-43435929D01*
X33198810Y-43495452D01*
X33079763Y-43554976D01*
X32782144Y-43554976D01*
X32663096Y-43495452D01*
X32603572Y-43435929D01*
X33794048Y-42424024D02*
X33853572Y-42364500D01*
X33972620Y-42304976D01*
X34270239Y-42304976D01*
X34389286Y-42364500D01*
X34448810Y-42424024D01*
X34508334Y-42543071D01*
X34508334Y-42662119D01*
X34448810Y-42840690D01*
X33734524Y-43554976D01*
X34508334Y-43554976D01*
X35044048Y-43078786D02*
X35996429Y-43078786D01*
X37008334Y-42900214D02*
X37186905Y-42959738D01*
X37246429Y-43019262D01*
X37305953Y-43138310D01*
X37305953Y-43316881D01*
X37246429Y-43435929D01*
X37186905Y-43495452D01*
X37067858Y-43554976D01*
X36591667Y-43554976D01*
X36591667Y-42304976D01*
X37008334Y-42304976D01*
X37127381Y-42364500D01*
X37186905Y-42424024D01*
X37246429Y-42543071D01*
X37246429Y-42662119D01*
X37186905Y-42781167D01*
X37127381Y-42840690D01*
X37008334Y-42900214D01*
X36591667Y-42900214D01*
X38079762Y-42304976D02*
X38317858Y-42304976D01*
X38436905Y-42364500D01*
X38555953Y-42483548D01*
X38615477Y-42721643D01*
X38615477Y-43138310D01*
X38555953Y-43376405D01*
X38436905Y-43495452D01*
X38317858Y-43554976D01*
X38079762Y-43554976D01*
X37960715Y-43495452D01*
X37841667Y-43376405D01*
X37782143Y-43138310D01*
X37782143Y-42721643D01*
X37841667Y-42483548D01*
X37960715Y-42364500D01*
X38079762Y-42304976D01*
X39567858Y-42900214D02*
X39746429Y-42959738D01*
X39805953Y-43019262D01*
X39865477Y-43138310D01*
X39865477Y-43316881D01*
X39805953Y-43435929D01*
X39746429Y-43495452D01*
X39627382Y-43554976D01*
X39151191Y-43554976D01*
X39151191Y-42304976D01*
X39567858Y-42304976D01*
X39686905Y-42364500D01*
X39746429Y-42424024D01*
X39805953Y-42543071D01*
X39805953Y-42662119D01*
X39746429Y-42781167D01*
X39686905Y-42840690D01*
X39567858Y-42900214D01*
X39151191Y-42900214D01*
D14*
X37246000Y-32862000D02*
X37246000Y-32162000D01*
X38446000Y-32162000D02*
X38446000Y-32862000D01*
X38833500Y-32862000D02*
X38833500Y-32162000D01*
X40033500Y-32162000D02*
X40033500Y-32862000D01*
X35298000Y-38895500D02*
X34298000Y-38895500D01*
X34298000Y-38895500D02*
X34298000Y-40995500D01*
X35298000Y-38895500D02*
X35298000Y-40995500D01*
X34118000Y-36377500D02*
X34118000Y-35377500D01*
X35478000Y-35377500D02*
X35478000Y-36377500D01*
D12*
X39706500Y-30330200D02*
X39706500Y-14330200D01*
X39706500Y-14330200D02*
X29706500Y-14330200D01*
X29706500Y-30330200D02*
X39706500Y-30330200D01*
X29706500Y-14330200D02*
X29706500Y-30330200D01*
D15*
X31870861Y-16081800D02*
G75*
G03X31870861Y-16081800I-567961J0D01*
G01*
D12*
X38330143Y-35472666D02*
X38377762Y-35520285D01*
X38425381Y-35663142D01*
X38425381Y-35758380D01*
X38377762Y-35901238D01*
X38282524Y-35996476D01*
X38187286Y-36044095D01*
X37996810Y-36091714D01*
X37853952Y-36091714D01*
X37663476Y-36044095D01*
X37568238Y-35996476D01*
X37473000Y-35901238D01*
X37425381Y-35758380D01*
X37425381Y-35663142D01*
X37473000Y-35520285D01*
X37520619Y-35472666D01*
X37425381Y-34567904D02*
X37425381Y-35044095D01*
X37901571Y-35091714D01*
X37853952Y-35044095D01*
X37806333Y-34948857D01*
X37806333Y-34710761D01*
X37853952Y-34615523D01*
X37901571Y-34567904D01*
X37996810Y-34520285D01*
X38234905Y-34520285D01*
X38330143Y-34567904D01*
X38377762Y-34615523D01*
X38425381Y-34710761D01*
X38425381Y-34948857D01*
X38377762Y-35044095D01*
X38330143Y-35091714D01*
X39854143Y-35536166D02*
X39901762Y-35583785D01*
X39949381Y-35726642D01*
X39949381Y-35821880D01*
X39901762Y-35964738D01*
X39806524Y-36059976D01*
X39711286Y-36107595D01*
X39520810Y-36155214D01*
X39377952Y-36155214D01*
X39187476Y-36107595D01*
X39092238Y-36059976D01*
X38997000Y-35964738D01*
X38949381Y-35821880D01*
X38949381Y-35726642D01*
X38997000Y-35583785D01*
X39044619Y-35536166D01*
X38949381Y-34679023D02*
X38949381Y-34869500D01*
X38997000Y-34964738D01*
X39044619Y-35012357D01*
X39187476Y-35107595D01*
X39377952Y-35155214D01*
X39758905Y-35155214D01*
X39854143Y-35107595D01*
X39901762Y-35059976D01*
X39949381Y-34964738D01*
X39949381Y-34774261D01*
X39901762Y-34679023D01*
X39854143Y-34631404D01*
X39758905Y-34583785D01*
X39520810Y-34583785D01*
X39425571Y-34631404D01*
X39377952Y-34679023D01*
X39330333Y-34774261D01*
X39330333Y-34964738D01*
X39377952Y-35059976D01*
X39425571Y-35107595D01*
X39520810Y-35155214D01*
X33853381Y-40743095D02*
X32853381Y-40743095D01*
X32853381Y-40505000D01*
X32901000Y-40362142D01*
X32996238Y-40266904D01*
X33091476Y-40219285D01*
X33281952Y-40171666D01*
X33424810Y-40171666D01*
X33615286Y-40219285D01*
X33710524Y-40266904D01*
X33805762Y-40362142D01*
X33853381Y-40505000D01*
X33853381Y-40743095D01*
X33853381Y-39219285D02*
X33853381Y-39790714D01*
X33853381Y-39505000D02*
X32853381Y-39505000D01*
X32996238Y-39600238D01*
X33091476Y-39695476D01*
X33139095Y-39790714D01*
X33662881Y-36234666D02*
X33186690Y-36568000D01*
X33662881Y-36806095D02*
X32662881Y-36806095D01*
X32662881Y-36425142D01*
X32710500Y-36329904D01*
X32758119Y-36282285D01*
X32853357Y-36234666D01*
X32996214Y-36234666D01*
X33091452Y-36282285D01*
X33139071Y-36329904D01*
X33186690Y-36425142D01*
X33186690Y-36806095D01*
X33662881Y-35282285D02*
X33662881Y-35853714D01*
X33662881Y-35568000D02*
X32662881Y-35568000D01*
X32805738Y-35663238D01*
X32900976Y-35758476D01*
X32948595Y-35853714D01*
X28702095Y-31075381D02*
X28702095Y-31884905D01*
X28749714Y-31980143D01*
X28797333Y-32027762D01*
X28892571Y-32075381D01*
X29083048Y-32075381D01*
X29178286Y-32027762D01*
X29225905Y-31980143D01*
X29273524Y-31884905D01*
X29273524Y-31075381D01*
X30273524Y-32075381D02*
X29702095Y-32075381D01*
X29987809Y-32075381D02*
X29987809Y-31075381D01*
X29892571Y-31218238D01*
X29797333Y-31313476D01*
X29702095Y-31361095D01*
M02*
