G04 #@! TF.FileFunction,Copper,L3,Inr,Signal*
%FSLAX46Y46*%
G04 Gerber Fmt 4.6, Leading zero omitted, Abs format (unit mm)*
G04 Created by KiCad (PCBNEW 4.0.4-stable) date 06/20/17 22:04:30*
%MOMM*%
%LPD*%
G01*
G04 APERTURE LIST*
%ADD10C,0.100000*%
%ADD11R,2.032000X1.727200*%
%ADD12O,2.032000X1.727200*%
%ADD13C,0.600000*%
%ADD14C,0.254000*%
G04 APERTURE END LIST*
D10*
D11*
X27000000Y-20000000D03*
D12*
X27000000Y-22540000D03*
X27000000Y-25080000D03*
X27000000Y-27620000D03*
X27000000Y-30160000D03*
X27000000Y-32700000D03*
X27000000Y-35240000D03*
X27000000Y-37780000D03*
X27000000Y-40320000D03*
X27000000Y-42860000D03*
X27000000Y-45400000D03*
X27000000Y-47940000D03*
D11*
X42300000Y-20000000D03*
D12*
X42300000Y-22540000D03*
X42300000Y-25080000D03*
X42300000Y-27620000D03*
X42300000Y-30160000D03*
X42300000Y-32700000D03*
X42300000Y-35240000D03*
X42300000Y-37780000D03*
X42300000Y-40320000D03*
X42300000Y-42860000D03*
X42300000Y-45400000D03*
X42300000Y-47940000D03*
D13*
X30506500Y-32295000D03*
X40555480Y-32131000D03*
X37531500Y-34226500D03*
X35814000Y-28448000D03*
X35623500Y-43688000D03*
X33439500Y-48958500D03*
X29652500Y-46228000D03*
X32956500Y-38735000D03*
X32131000Y-38989000D03*
X36512500Y-28003500D03*
X30543500Y-28448000D03*
X36323020Y-33464500D03*
X37719000Y-46037500D03*
X33782000Y-41211500D03*
X37832500Y-28257500D03*
X36131500Y-24574500D03*
X31703999Y-32685001D03*
X32004000Y-31623000D03*
X33274000Y-28653998D03*
X35830847Y-22990517D03*
X35889143Y-22192642D03*
X36322000Y-23622000D03*
X37084000Y-24003000D03*
X37909500Y-24179000D03*
X38237000Y-24954000D03*
X31251500Y-23749000D03*
X31877000Y-24257000D03*
X32575500Y-24701500D03*
X33147000Y-25336500D03*
D14*
G36*
X43359000Y-18501400D02*
X42585750Y-18501400D01*
X42427000Y-18660150D01*
X42427000Y-19873000D01*
X42447000Y-19873000D01*
X42447000Y-20127000D01*
X42427000Y-20127000D01*
X42427000Y-20147000D01*
X42173000Y-20147000D01*
X42173000Y-20127000D01*
X40807750Y-20127000D01*
X40649000Y-20285750D01*
X40649000Y-20989910D01*
X40745673Y-21223299D01*
X40924302Y-21401927D01*
X41077780Y-21465500D01*
X41055585Y-21480330D01*
X40730729Y-21966511D01*
X40616655Y-22540000D01*
X40730729Y-23113489D01*
X41055585Y-23599670D01*
X41370366Y-23810000D01*
X41055585Y-24020330D01*
X40730729Y-24506511D01*
X40616655Y-25080000D01*
X40730729Y-25653489D01*
X41055585Y-26139670D01*
X41370366Y-26350000D01*
X41055585Y-26560330D01*
X40730729Y-27046511D01*
X40616655Y-27620000D01*
X40730729Y-28193489D01*
X41055585Y-28679670D01*
X41370366Y-28890000D01*
X41055585Y-29100330D01*
X40730729Y-29586511D01*
X40616655Y-30160000D01*
X40730729Y-30733489D01*
X41055585Y-31219670D01*
X41370366Y-31430000D01*
X41055585Y-31640330D01*
X40730729Y-32126511D01*
X40616655Y-32700000D01*
X40730729Y-33273489D01*
X41055585Y-33759670D01*
X41370366Y-33970000D01*
X41055585Y-34180330D01*
X40730729Y-34666511D01*
X40616655Y-35240000D01*
X40730729Y-35813489D01*
X41055585Y-36299670D01*
X41370366Y-36510000D01*
X41055585Y-36720330D01*
X40730729Y-37206511D01*
X40616655Y-37780000D01*
X40730729Y-38353489D01*
X41055585Y-38839670D01*
X41370366Y-39050000D01*
X41055585Y-39260330D01*
X40730729Y-39746511D01*
X40616655Y-40320000D01*
X40730729Y-40893489D01*
X41055585Y-41379670D01*
X41370366Y-41590000D01*
X41055585Y-41800330D01*
X40730729Y-42286511D01*
X40616655Y-42860000D01*
X40730729Y-43433489D01*
X41055585Y-43919670D01*
X41370366Y-44130000D01*
X41055585Y-44340330D01*
X40730729Y-44826511D01*
X40616655Y-45400000D01*
X40730729Y-45973489D01*
X41055585Y-46459670D01*
X41370366Y-46670000D01*
X41055585Y-46880330D01*
X40730729Y-47366511D01*
X40616655Y-47940000D01*
X40730729Y-48513489D01*
X41055585Y-48999670D01*
X41166828Y-49074000D01*
X28133172Y-49074000D01*
X28244415Y-48999670D01*
X28569271Y-48513489D01*
X28683345Y-47940000D01*
X28569271Y-47366511D01*
X28244415Y-46880330D01*
X27929634Y-46670000D01*
X28244415Y-46459670D01*
X28402775Y-46222667D01*
X36783838Y-46222667D01*
X36925883Y-46566443D01*
X37188673Y-46829692D01*
X37532201Y-46972338D01*
X37904167Y-46972662D01*
X38247943Y-46830617D01*
X38511192Y-46567827D01*
X38653838Y-46224299D01*
X38654162Y-45852333D01*
X38512117Y-45508557D01*
X38249327Y-45245308D01*
X37905799Y-45102662D01*
X37533833Y-45102338D01*
X37190057Y-45244383D01*
X36926808Y-45507173D01*
X36784162Y-45850701D01*
X36783838Y-46222667D01*
X28402775Y-46222667D01*
X28569271Y-45973489D01*
X28683345Y-45400000D01*
X28569271Y-44826511D01*
X28244415Y-44340330D01*
X27929634Y-44130000D01*
X28244415Y-43919670D01*
X28569271Y-43433489D01*
X28683345Y-42860000D01*
X28569271Y-42286511D01*
X28244415Y-41800330D01*
X27929634Y-41590000D01*
X28218977Y-41396667D01*
X32846838Y-41396667D01*
X32988883Y-41740443D01*
X33251673Y-42003692D01*
X33595201Y-42146338D01*
X33967167Y-42146662D01*
X34310943Y-42004617D01*
X34574192Y-41741827D01*
X34716838Y-41398299D01*
X34717162Y-41026333D01*
X34575117Y-40682557D01*
X34312327Y-40419308D01*
X33968799Y-40276662D01*
X33596833Y-40276338D01*
X33253057Y-40418383D01*
X32989808Y-40681173D01*
X32847162Y-41024701D01*
X32846838Y-41396667D01*
X28218977Y-41396667D01*
X28244415Y-41379670D01*
X28569271Y-40893489D01*
X28683345Y-40320000D01*
X28569271Y-39746511D01*
X28244415Y-39260330D01*
X27929634Y-39050000D01*
X28244415Y-38839670D01*
X28569271Y-38353489D01*
X28683345Y-37780000D01*
X28569271Y-37206511D01*
X28244415Y-36720330D01*
X27929634Y-36510000D01*
X28244415Y-36299670D01*
X28569271Y-35813489D01*
X28683345Y-35240000D01*
X28569271Y-34666511D01*
X28244415Y-34180330D01*
X27929634Y-33970000D01*
X28244415Y-33759670D01*
X28317916Y-33649667D01*
X35387858Y-33649667D01*
X35529903Y-33993443D01*
X35792693Y-34256692D01*
X36136221Y-34399338D01*
X36508187Y-34399662D01*
X36851963Y-34257617D01*
X37115212Y-33994827D01*
X37257858Y-33651299D01*
X37258182Y-33279333D01*
X37116137Y-32935557D01*
X36853347Y-32672308D01*
X36509819Y-32529662D01*
X36137853Y-32529338D01*
X35794077Y-32671383D01*
X35530828Y-32934173D01*
X35388182Y-33277701D01*
X35387858Y-33649667D01*
X28317916Y-33649667D01*
X28569271Y-33273489D01*
X28649496Y-32870168D01*
X30768837Y-32870168D01*
X30910882Y-33213944D01*
X31173672Y-33477193D01*
X31517200Y-33619839D01*
X31889166Y-33620163D01*
X32232942Y-33478118D01*
X32496191Y-33215328D01*
X32638837Y-32871800D01*
X32639161Y-32499834D01*
X32583653Y-32365495D01*
X32796192Y-32153327D01*
X32938838Y-31809799D01*
X32939162Y-31437833D01*
X32797117Y-31094057D01*
X32534327Y-30830808D01*
X32190799Y-30688162D01*
X31818833Y-30687838D01*
X31475057Y-30829883D01*
X31211808Y-31092673D01*
X31069162Y-31436201D01*
X31068838Y-31808167D01*
X31124346Y-31942506D01*
X30911807Y-32154674D01*
X30769161Y-32498202D01*
X30768837Y-32870168D01*
X28649496Y-32870168D01*
X28683345Y-32700000D01*
X28569271Y-32126511D01*
X28244415Y-31640330D01*
X27929634Y-31430000D01*
X28244415Y-31219670D01*
X28569271Y-30733489D01*
X28683345Y-30160000D01*
X28569271Y-29586511D01*
X28244415Y-29100330D01*
X27929634Y-28890000D01*
X28244415Y-28679670D01*
X28275487Y-28633167D01*
X29608338Y-28633167D01*
X29750383Y-28976943D01*
X30013173Y-29240192D01*
X30356701Y-29382838D01*
X30728667Y-29383162D01*
X31072443Y-29241117D01*
X31335692Y-28978327D01*
X31393477Y-28839165D01*
X32338838Y-28839165D01*
X32480883Y-29182941D01*
X32743673Y-29446190D01*
X33087201Y-29588836D01*
X33459167Y-29589160D01*
X33802943Y-29447115D01*
X34066192Y-29184325D01*
X34208838Y-28840797D01*
X34209162Y-28468831D01*
X34198352Y-28442667D01*
X36897338Y-28442667D01*
X37039383Y-28786443D01*
X37302173Y-29049692D01*
X37645701Y-29192338D01*
X38017667Y-29192662D01*
X38361443Y-29050617D01*
X38624692Y-28787827D01*
X38767338Y-28444299D01*
X38767662Y-28072333D01*
X38625617Y-27728557D01*
X38362827Y-27465308D01*
X38019299Y-27322662D01*
X37647333Y-27322338D01*
X37303557Y-27464383D01*
X37040308Y-27727173D01*
X36897662Y-28070701D01*
X36897338Y-28442667D01*
X34198352Y-28442667D01*
X34067117Y-28125055D01*
X33804327Y-27861806D01*
X33460799Y-27719160D01*
X33088833Y-27718836D01*
X32745057Y-27860881D01*
X32481808Y-28123671D01*
X32339162Y-28467199D01*
X32338838Y-28839165D01*
X31393477Y-28839165D01*
X31478338Y-28634799D01*
X31478662Y-28262833D01*
X31336617Y-27919057D01*
X31073827Y-27655808D01*
X30730299Y-27513162D01*
X30358333Y-27512838D01*
X30014557Y-27654883D01*
X29751308Y-27917673D01*
X29608662Y-28261201D01*
X29608338Y-28633167D01*
X28275487Y-28633167D01*
X28569271Y-28193489D01*
X28683345Y-27620000D01*
X28569271Y-27046511D01*
X28244415Y-26560330D01*
X27929634Y-26350000D01*
X28244415Y-26139670D01*
X28569271Y-25653489D01*
X28683345Y-25080000D01*
X28569271Y-24506511D01*
X28244415Y-24020330D01*
X28115463Y-23934167D01*
X30316338Y-23934167D01*
X30458383Y-24277943D01*
X30721173Y-24541192D01*
X31036929Y-24672306D01*
X31083883Y-24785943D01*
X31346673Y-25049192D01*
X31690201Y-25191838D01*
X31766459Y-25191904D01*
X31782383Y-25230443D01*
X32045173Y-25493692D01*
X32232402Y-25571437D01*
X32353883Y-25865443D01*
X32616673Y-26128692D01*
X32960201Y-26271338D01*
X33332167Y-26271662D01*
X33675943Y-26129617D01*
X33939192Y-25866827D01*
X34081838Y-25523299D01*
X34082162Y-25151333D01*
X33940117Y-24807557D01*
X33677327Y-24544308D01*
X33490098Y-24466563D01*
X33368617Y-24172557D01*
X33105827Y-23909308D01*
X32762299Y-23766662D01*
X32686041Y-23766596D01*
X32670117Y-23728057D01*
X32407327Y-23464808D01*
X32091571Y-23333694D01*
X32044617Y-23220057D01*
X32000322Y-23175684D01*
X34895685Y-23175684D01*
X35037730Y-23519460D01*
X35300520Y-23782709D01*
X35392516Y-23820909D01*
X35442290Y-23941371D01*
X35339308Y-24044173D01*
X35196662Y-24387701D01*
X35196338Y-24759667D01*
X35338383Y-25103443D01*
X35601173Y-25366692D01*
X35944701Y-25509338D01*
X36316667Y-25509662D01*
X36660443Y-25367617D01*
X36923692Y-25104827D01*
X36992998Y-24937921D01*
X37269167Y-24938162D01*
X37302025Y-24924585D01*
X37301838Y-25139167D01*
X37443883Y-25482943D01*
X37706673Y-25746192D01*
X38050201Y-25888838D01*
X38422167Y-25889162D01*
X38765943Y-25747117D01*
X39029192Y-25484327D01*
X39171838Y-25140799D01*
X39172162Y-24768833D01*
X39030117Y-24425057D01*
X38844448Y-24239064D01*
X38844662Y-23993833D01*
X38702617Y-23650057D01*
X38439827Y-23386808D01*
X38096299Y-23244162D01*
X37724333Y-23243838D01*
X37669795Y-23266373D01*
X37614327Y-23210808D01*
X37270799Y-23068162D01*
X37090108Y-23068005D01*
X36852327Y-22829808D01*
X36760331Y-22791608D01*
X36706715Y-22661847D01*
X36823981Y-22379441D01*
X36824305Y-22007475D01*
X36682260Y-21663699D01*
X36419470Y-21400450D01*
X36075942Y-21257804D01*
X35703976Y-21257480D01*
X35360200Y-21399525D01*
X35096951Y-21662315D01*
X34954305Y-22005843D01*
X34953981Y-22377809D01*
X35013275Y-22521312D01*
X34896009Y-22803718D01*
X34895685Y-23175684D01*
X32000322Y-23175684D01*
X31781827Y-22956808D01*
X31438299Y-22814162D01*
X31066333Y-22813838D01*
X30722557Y-22955883D01*
X30459308Y-23218673D01*
X30316662Y-23562201D01*
X30316338Y-23934167D01*
X28115463Y-23934167D01*
X27929634Y-23810000D01*
X28244415Y-23599670D01*
X28569271Y-23113489D01*
X28683345Y-22540000D01*
X28569271Y-21966511D01*
X28244415Y-21480330D01*
X28222220Y-21465500D01*
X28375698Y-21401927D01*
X28554327Y-21223299D01*
X28651000Y-20989910D01*
X28651000Y-20285750D01*
X28492250Y-20127000D01*
X27127000Y-20127000D01*
X27127000Y-20147000D01*
X26873000Y-20147000D01*
X26873000Y-20127000D01*
X26853000Y-20127000D01*
X26853000Y-19873000D01*
X26873000Y-19873000D01*
X26873000Y-18660150D01*
X27127000Y-18660150D01*
X27127000Y-19873000D01*
X28492250Y-19873000D01*
X28651000Y-19714250D01*
X28651000Y-19010090D01*
X40649000Y-19010090D01*
X40649000Y-19714250D01*
X40807750Y-19873000D01*
X42173000Y-19873000D01*
X42173000Y-18660150D01*
X42014250Y-18501400D01*
X41157691Y-18501400D01*
X40924302Y-18598073D01*
X40745673Y-18776701D01*
X40649000Y-19010090D01*
X28651000Y-19010090D01*
X28554327Y-18776701D01*
X28375698Y-18598073D01*
X28142309Y-18501400D01*
X27285750Y-18501400D01*
X27127000Y-18660150D01*
X26873000Y-18660150D01*
X26714250Y-18501400D01*
X25983000Y-18501400D01*
X25983000Y-17907000D01*
X43359000Y-17907000D01*
X43359000Y-18501400D01*
X43359000Y-18501400D01*
G37*
X43359000Y-18501400D02*
X42585750Y-18501400D01*
X42427000Y-18660150D01*
X42427000Y-19873000D01*
X42447000Y-19873000D01*
X42447000Y-20127000D01*
X42427000Y-20127000D01*
X42427000Y-20147000D01*
X42173000Y-20147000D01*
X42173000Y-20127000D01*
X40807750Y-20127000D01*
X40649000Y-20285750D01*
X40649000Y-20989910D01*
X40745673Y-21223299D01*
X40924302Y-21401927D01*
X41077780Y-21465500D01*
X41055585Y-21480330D01*
X40730729Y-21966511D01*
X40616655Y-22540000D01*
X40730729Y-23113489D01*
X41055585Y-23599670D01*
X41370366Y-23810000D01*
X41055585Y-24020330D01*
X40730729Y-24506511D01*
X40616655Y-25080000D01*
X40730729Y-25653489D01*
X41055585Y-26139670D01*
X41370366Y-26350000D01*
X41055585Y-26560330D01*
X40730729Y-27046511D01*
X40616655Y-27620000D01*
X40730729Y-28193489D01*
X41055585Y-28679670D01*
X41370366Y-28890000D01*
X41055585Y-29100330D01*
X40730729Y-29586511D01*
X40616655Y-30160000D01*
X40730729Y-30733489D01*
X41055585Y-31219670D01*
X41370366Y-31430000D01*
X41055585Y-31640330D01*
X40730729Y-32126511D01*
X40616655Y-32700000D01*
X40730729Y-33273489D01*
X41055585Y-33759670D01*
X41370366Y-33970000D01*
X41055585Y-34180330D01*
X40730729Y-34666511D01*
X40616655Y-35240000D01*
X40730729Y-35813489D01*
X41055585Y-36299670D01*
X41370366Y-36510000D01*
X41055585Y-36720330D01*
X40730729Y-37206511D01*
X40616655Y-37780000D01*
X40730729Y-38353489D01*
X41055585Y-38839670D01*
X41370366Y-39050000D01*
X41055585Y-39260330D01*
X40730729Y-39746511D01*
X40616655Y-40320000D01*
X40730729Y-40893489D01*
X41055585Y-41379670D01*
X41370366Y-41590000D01*
X41055585Y-41800330D01*
X40730729Y-42286511D01*
X40616655Y-42860000D01*
X40730729Y-43433489D01*
X41055585Y-43919670D01*
X41370366Y-44130000D01*
X41055585Y-44340330D01*
X40730729Y-44826511D01*
X40616655Y-45400000D01*
X40730729Y-45973489D01*
X41055585Y-46459670D01*
X41370366Y-46670000D01*
X41055585Y-46880330D01*
X40730729Y-47366511D01*
X40616655Y-47940000D01*
X40730729Y-48513489D01*
X41055585Y-48999670D01*
X41166828Y-49074000D01*
X28133172Y-49074000D01*
X28244415Y-48999670D01*
X28569271Y-48513489D01*
X28683345Y-47940000D01*
X28569271Y-47366511D01*
X28244415Y-46880330D01*
X27929634Y-46670000D01*
X28244415Y-46459670D01*
X28402775Y-46222667D01*
X36783838Y-46222667D01*
X36925883Y-46566443D01*
X37188673Y-46829692D01*
X37532201Y-46972338D01*
X37904167Y-46972662D01*
X38247943Y-46830617D01*
X38511192Y-46567827D01*
X38653838Y-46224299D01*
X38654162Y-45852333D01*
X38512117Y-45508557D01*
X38249327Y-45245308D01*
X37905799Y-45102662D01*
X37533833Y-45102338D01*
X37190057Y-45244383D01*
X36926808Y-45507173D01*
X36784162Y-45850701D01*
X36783838Y-46222667D01*
X28402775Y-46222667D01*
X28569271Y-45973489D01*
X28683345Y-45400000D01*
X28569271Y-44826511D01*
X28244415Y-44340330D01*
X27929634Y-44130000D01*
X28244415Y-43919670D01*
X28569271Y-43433489D01*
X28683345Y-42860000D01*
X28569271Y-42286511D01*
X28244415Y-41800330D01*
X27929634Y-41590000D01*
X28218977Y-41396667D01*
X32846838Y-41396667D01*
X32988883Y-41740443D01*
X33251673Y-42003692D01*
X33595201Y-42146338D01*
X33967167Y-42146662D01*
X34310943Y-42004617D01*
X34574192Y-41741827D01*
X34716838Y-41398299D01*
X34717162Y-41026333D01*
X34575117Y-40682557D01*
X34312327Y-40419308D01*
X33968799Y-40276662D01*
X33596833Y-40276338D01*
X33253057Y-40418383D01*
X32989808Y-40681173D01*
X32847162Y-41024701D01*
X32846838Y-41396667D01*
X28218977Y-41396667D01*
X28244415Y-41379670D01*
X28569271Y-40893489D01*
X28683345Y-40320000D01*
X28569271Y-39746511D01*
X28244415Y-39260330D01*
X27929634Y-39050000D01*
X28244415Y-38839670D01*
X28569271Y-38353489D01*
X28683345Y-37780000D01*
X28569271Y-37206511D01*
X28244415Y-36720330D01*
X27929634Y-36510000D01*
X28244415Y-36299670D01*
X28569271Y-35813489D01*
X28683345Y-35240000D01*
X28569271Y-34666511D01*
X28244415Y-34180330D01*
X27929634Y-33970000D01*
X28244415Y-33759670D01*
X28317916Y-33649667D01*
X35387858Y-33649667D01*
X35529903Y-33993443D01*
X35792693Y-34256692D01*
X36136221Y-34399338D01*
X36508187Y-34399662D01*
X36851963Y-34257617D01*
X37115212Y-33994827D01*
X37257858Y-33651299D01*
X37258182Y-33279333D01*
X37116137Y-32935557D01*
X36853347Y-32672308D01*
X36509819Y-32529662D01*
X36137853Y-32529338D01*
X35794077Y-32671383D01*
X35530828Y-32934173D01*
X35388182Y-33277701D01*
X35387858Y-33649667D01*
X28317916Y-33649667D01*
X28569271Y-33273489D01*
X28649496Y-32870168D01*
X30768837Y-32870168D01*
X30910882Y-33213944D01*
X31173672Y-33477193D01*
X31517200Y-33619839D01*
X31889166Y-33620163D01*
X32232942Y-33478118D01*
X32496191Y-33215328D01*
X32638837Y-32871800D01*
X32639161Y-32499834D01*
X32583653Y-32365495D01*
X32796192Y-32153327D01*
X32938838Y-31809799D01*
X32939162Y-31437833D01*
X32797117Y-31094057D01*
X32534327Y-30830808D01*
X32190799Y-30688162D01*
X31818833Y-30687838D01*
X31475057Y-30829883D01*
X31211808Y-31092673D01*
X31069162Y-31436201D01*
X31068838Y-31808167D01*
X31124346Y-31942506D01*
X30911807Y-32154674D01*
X30769161Y-32498202D01*
X30768837Y-32870168D01*
X28649496Y-32870168D01*
X28683345Y-32700000D01*
X28569271Y-32126511D01*
X28244415Y-31640330D01*
X27929634Y-31430000D01*
X28244415Y-31219670D01*
X28569271Y-30733489D01*
X28683345Y-30160000D01*
X28569271Y-29586511D01*
X28244415Y-29100330D01*
X27929634Y-28890000D01*
X28244415Y-28679670D01*
X28275487Y-28633167D01*
X29608338Y-28633167D01*
X29750383Y-28976943D01*
X30013173Y-29240192D01*
X30356701Y-29382838D01*
X30728667Y-29383162D01*
X31072443Y-29241117D01*
X31335692Y-28978327D01*
X31393477Y-28839165D01*
X32338838Y-28839165D01*
X32480883Y-29182941D01*
X32743673Y-29446190D01*
X33087201Y-29588836D01*
X33459167Y-29589160D01*
X33802943Y-29447115D01*
X34066192Y-29184325D01*
X34208838Y-28840797D01*
X34209162Y-28468831D01*
X34198352Y-28442667D01*
X36897338Y-28442667D01*
X37039383Y-28786443D01*
X37302173Y-29049692D01*
X37645701Y-29192338D01*
X38017667Y-29192662D01*
X38361443Y-29050617D01*
X38624692Y-28787827D01*
X38767338Y-28444299D01*
X38767662Y-28072333D01*
X38625617Y-27728557D01*
X38362827Y-27465308D01*
X38019299Y-27322662D01*
X37647333Y-27322338D01*
X37303557Y-27464383D01*
X37040308Y-27727173D01*
X36897662Y-28070701D01*
X36897338Y-28442667D01*
X34198352Y-28442667D01*
X34067117Y-28125055D01*
X33804327Y-27861806D01*
X33460799Y-27719160D01*
X33088833Y-27718836D01*
X32745057Y-27860881D01*
X32481808Y-28123671D01*
X32339162Y-28467199D01*
X32338838Y-28839165D01*
X31393477Y-28839165D01*
X31478338Y-28634799D01*
X31478662Y-28262833D01*
X31336617Y-27919057D01*
X31073827Y-27655808D01*
X30730299Y-27513162D01*
X30358333Y-27512838D01*
X30014557Y-27654883D01*
X29751308Y-27917673D01*
X29608662Y-28261201D01*
X29608338Y-28633167D01*
X28275487Y-28633167D01*
X28569271Y-28193489D01*
X28683345Y-27620000D01*
X28569271Y-27046511D01*
X28244415Y-26560330D01*
X27929634Y-26350000D01*
X28244415Y-26139670D01*
X28569271Y-25653489D01*
X28683345Y-25080000D01*
X28569271Y-24506511D01*
X28244415Y-24020330D01*
X28115463Y-23934167D01*
X30316338Y-23934167D01*
X30458383Y-24277943D01*
X30721173Y-24541192D01*
X31036929Y-24672306D01*
X31083883Y-24785943D01*
X31346673Y-25049192D01*
X31690201Y-25191838D01*
X31766459Y-25191904D01*
X31782383Y-25230443D01*
X32045173Y-25493692D01*
X32232402Y-25571437D01*
X32353883Y-25865443D01*
X32616673Y-26128692D01*
X32960201Y-26271338D01*
X33332167Y-26271662D01*
X33675943Y-26129617D01*
X33939192Y-25866827D01*
X34081838Y-25523299D01*
X34082162Y-25151333D01*
X33940117Y-24807557D01*
X33677327Y-24544308D01*
X33490098Y-24466563D01*
X33368617Y-24172557D01*
X33105827Y-23909308D01*
X32762299Y-23766662D01*
X32686041Y-23766596D01*
X32670117Y-23728057D01*
X32407327Y-23464808D01*
X32091571Y-23333694D01*
X32044617Y-23220057D01*
X32000322Y-23175684D01*
X34895685Y-23175684D01*
X35037730Y-23519460D01*
X35300520Y-23782709D01*
X35392516Y-23820909D01*
X35442290Y-23941371D01*
X35339308Y-24044173D01*
X35196662Y-24387701D01*
X35196338Y-24759667D01*
X35338383Y-25103443D01*
X35601173Y-25366692D01*
X35944701Y-25509338D01*
X36316667Y-25509662D01*
X36660443Y-25367617D01*
X36923692Y-25104827D01*
X36992998Y-24937921D01*
X37269167Y-24938162D01*
X37302025Y-24924585D01*
X37301838Y-25139167D01*
X37443883Y-25482943D01*
X37706673Y-25746192D01*
X38050201Y-25888838D01*
X38422167Y-25889162D01*
X38765943Y-25747117D01*
X39029192Y-25484327D01*
X39171838Y-25140799D01*
X39172162Y-24768833D01*
X39030117Y-24425057D01*
X38844448Y-24239064D01*
X38844662Y-23993833D01*
X38702617Y-23650057D01*
X38439827Y-23386808D01*
X38096299Y-23244162D01*
X37724333Y-23243838D01*
X37669795Y-23266373D01*
X37614327Y-23210808D01*
X37270799Y-23068162D01*
X37090108Y-23068005D01*
X36852327Y-22829808D01*
X36760331Y-22791608D01*
X36706715Y-22661847D01*
X36823981Y-22379441D01*
X36824305Y-22007475D01*
X36682260Y-21663699D01*
X36419470Y-21400450D01*
X36075942Y-21257804D01*
X35703976Y-21257480D01*
X35360200Y-21399525D01*
X35096951Y-21662315D01*
X34954305Y-22005843D01*
X34953981Y-22377809D01*
X35013275Y-22521312D01*
X34896009Y-22803718D01*
X34895685Y-23175684D01*
X32000322Y-23175684D01*
X31781827Y-22956808D01*
X31438299Y-22814162D01*
X31066333Y-22813838D01*
X30722557Y-22955883D01*
X30459308Y-23218673D01*
X30316662Y-23562201D01*
X30316338Y-23934167D01*
X28115463Y-23934167D01*
X27929634Y-23810000D01*
X28244415Y-23599670D01*
X28569271Y-23113489D01*
X28683345Y-22540000D01*
X28569271Y-21966511D01*
X28244415Y-21480330D01*
X28222220Y-21465500D01*
X28375698Y-21401927D01*
X28554327Y-21223299D01*
X28651000Y-20989910D01*
X28651000Y-20285750D01*
X28492250Y-20127000D01*
X27127000Y-20127000D01*
X27127000Y-20147000D01*
X26873000Y-20147000D01*
X26873000Y-20127000D01*
X26853000Y-20127000D01*
X26853000Y-19873000D01*
X26873000Y-19873000D01*
X26873000Y-18660150D01*
X27127000Y-18660150D01*
X27127000Y-19873000D01*
X28492250Y-19873000D01*
X28651000Y-19714250D01*
X28651000Y-19010090D01*
X40649000Y-19010090D01*
X40649000Y-19714250D01*
X40807750Y-19873000D01*
X42173000Y-19873000D01*
X42173000Y-18660150D01*
X42014250Y-18501400D01*
X41157691Y-18501400D01*
X40924302Y-18598073D01*
X40745673Y-18776701D01*
X40649000Y-19010090D01*
X28651000Y-19010090D01*
X28554327Y-18776701D01*
X28375698Y-18598073D01*
X28142309Y-18501400D01*
X27285750Y-18501400D01*
X27127000Y-18660150D01*
X26873000Y-18660150D01*
X26714250Y-18501400D01*
X25983000Y-18501400D01*
X25983000Y-17907000D01*
X43359000Y-17907000D01*
X43359000Y-18501400D01*
M02*
