M48
;DRILL file {KiCad 4.0.4-stable} date 06/20/17 22:04:32
;FORMAT={-:-/ absolute / inch / decimal}
FMAT,2
INCH,TZ
T1C0.016
T2C0.040
%
G90
G05
M72
T1
X1.1674Y-1.82
X1.201Y-1.2715
X1.2025Y-1.12
X1.2304Y-0.935
X1.2482Y-1.2868
X1.255Y-0.955
X1.26Y-1.245
X1.265Y-1.535
X1.2825Y-0.9725
X1.2975Y-1.525
X1.305Y-0.9975
X1.31Y-1.1281
X1.3165Y-1.9275
X1.33Y-1.6225
X1.4025Y-1.72
X1.41Y-1.12
X1.4107Y-0.9051
X1.413Y-0.8737
X1.4225Y-0.9675
X1.43Y-0.93
X1.43Y-1.3175
X1.4375Y-1.1025
X1.46Y-0.945
X1.4776Y-1.3475
X1.485Y-1.8125
X1.4895Y-1.1125
X1.4925Y-0.9519
X1.5054Y-0.9824
X1.5967Y-1.265
T2
X1.063Y-0.7874
X1.063Y-0.8874
X1.063Y-0.9874
X1.063Y-1.0874
X1.063Y-1.1874
X1.063Y-1.2874
X1.063Y-1.3874
X1.063Y-1.4874
X1.063Y-1.5874
X1.063Y-1.6874
X1.063Y-1.7874
X1.063Y-1.8874
X1.6654Y-0.7874
X1.6654Y-0.8874
X1.6654Y-0.9874
X1.6654Y-1.0874
X1.6654Y-1.1874
X1.6654Y-1.2874
X1.6654Y-1.3874
X1.6654Y-1.4874
X1.6654Y-1.5874
X1.6654Y-1.6874
X1.6654Y-1.7874
X1.6654Y-1.8874
T0
M30
