G04 #@! TF.FileFunction,Soldermask,Top*
%FSLAX46Y46*%
G04 Gerber Fmt 4.6, Leading zero omitted, Abs format (unit mm)*
G04 Created by KiCad (PCBNEW 4.0.4-stable) date 06/20/17 22:04:30*
%MOMM*%
%LPD*%
G01*
G04 APERTURE LIST*
%ADD10C,0.100000*%
%ADD11R,2.432000X2.127200*%
%ADD12O,2.432000X2.127200*%
%ADD13R,1.150000X1.200000*%
%ADD14R,1.200000X1.200000*%
%ADD15R,1.300000X0.900000*%
%ADD16R,1.800000X1.200000*%
%ADD17R,1.400000X0.800000*%
%ADD18R,1.800000X0.800000*%
%ADD19R,0.800000X1.800000*%
%ADD20R,0.800000X1.500000*%
G04 APERTURE END LIST*
D10*
D11*
X27000000Y-20000000D03*
D12*
X27000000Y-22540000D03*
X27000000Y-25080000D03*
X27000000Y-27620000D03*
X27000000Y-30160000D03*
X27000000Y-32700000D03*
X27000000Y-35240000D03*
X27000000Y-37780000D03*
X27000000Y-40320000D03*
X27000000Y-42860000D03*
X27000000Y-45400000D03*
X27000000Y-47940000D03*
D11*
X42300000Y-20000000D03*
D12*
X42300000Y-22540000D03*
X42300000Y-25080000D03*
X42300000Y-27620000D03*
X42300000Y-30160000D03*
X42300000Y-32700000D03*
X42300000Y-35240000D03*
X42300000Y-37780000D03*
X42300000Y-40320000D03*
X42300000Y-42860000D03*
X42300000Y-45400000D03*
X42300000Y-47940000D03*
D13*
X37846000Y-33262000D03*
X37846000Y-31762000D03*
X39433500Y-33262000D03*
X39433500Y-31762000D03*
D14*
X34798000Y-40995500D03*
X34798000Y-39395500D03*
D15*
X34798000Y-35127500D03*
X34798000Y-36627500D03*
D16*
X39306500Y-18454000D03*
D17*
X37606500Y-20404000D03*
D18*
X39306500Y-20054000D03*
X39306500Y-20754000D03*
X39306500Y-21454000D03*
X39306500Y-22154000D03*
X39306500Y-22854000D03*
X39306500Y-23554000D03*
X39306500Y-24254000D03*
X39306500Y-24954000D03*
X39306500Y-25654000D03*
X39306500Y-26354000D03*
X39306500Y-27054000D03*
X39306500Y-27754000D03*
X39306500Y-28454000D03*
D19*
X38206500Y-29854000D03*
X37506500Y-29854000D03*
X36806500Y-29854000D03*
X36106500Y-29854000D03*
X35406500Y-29854000D03*
X34706500Y-29854000D03*
X34006500Y-29854000D03*
D20*
X38906500Y-29704000D03*
D19*
X33306500Y-29854000D03*
X32606500Y-29854000D03*
X31806500Y-29854000D03*
X31206500Y-29854000D03*
D20*
X30506500Y-29704000D03*
D16*
X30106500Y-18454000D03*
D18*
X30106500Y-21454000D03*
X30106500Y-22154000D03*
X30106500Y-22854000D03*
X30106500Y-23554000D03*
X30106500Y-24254000D03*
X30106500Y-24954000D03*
X30106500Y-25654000D03*
X30106500Y-26354000D03*
X30106500Y-27054000D03*
X30106500Y-27754000D03*
X39306500Y-19354000D03*
D17*
X37606500Y-19004000D03*
M02*
