G04 #@! TF.FileFunction,Copper,L2,Inr,Signal*
%FSLAX46Y46*%
G04 Gerber Fmt 4.6, Leading zero omitted, Abs format (unit mm)*
G04 Created by KiCad (PCBNEW 4.0.4-stable) date 06/20/17 22:04:30*
%MOMM*%
%LPD*%
G01*
G04 APERTURE LIST*
%ADD10C,0.100000*%
%ADD11R,2.032000X1.727200*%
%ADD12O,2.032000X1.727200*%
%ADD13C,0.600000*%
%ADD14C,0.250000*%
%ADD15C,0.254000*%
G04 APERTURE END LIST*
D10*
D11*
X27000000Y-20000000D03*
D12*
X27000000Y-22540000D03*
X27000000Y-25080000D03*
X27000000Y-27620000D03*
X27000000Y-30160000D03*
X27000000Y-32700000D03*
X27000000Y-35240000D03*
X27000000Y-37780000D03*
X27000000Y-40320000D03*
X27000000Y-42860000D03*
X27000000Y-45400000D03*
X27000000Y-47940000D03*
D11*
X42300000Y-20000000D03*
D12*
X42300000Y-22540000D03*
X42300000Y-25080000D03*
X42300000Y-27620000D03*
X42300000Y-30160000D03*
X42300000Y-32700000D03*
X42300000Y-35240000D03*
X42300000Y-37780000D03*
X42300000Y-40320000D03*
X42300000Y-42860000D03*
X42300000Y-45400000D03*
X42300000Y-47940000D03*
D13*
X30506500Y-32295000D03*
X40555480Y-32131000D03*
X37531500Y-34226500D03*
X35814000Y-28448000D03*
X35623500Y-43688000D03*
X33439500Y-48958500D03*
X29652500Y-46228000D03*
X32956500Y-38735000D03*
X32131000Y-38989000D03*
X36512500Y-28003500D03*
X30543500Y-28448000D03*
X36323020Y-33464500D03*
X37719000Y-46037500D03*
X33782000Y-41211500D03*
X37832500Y-28257500D03*
X36131500Y-24574500D03*
X31703999Y-32685001D03*
X32004000Y-31623000D03*
X33274000Y-28653998D03*
X35830847Y-22990517D03*
X35889143Y-22192642D03*
X36322000Y-23622000D03*
X37084000Y-24003000D03*
X37909500Y-24179000D03*
X38237000Y-24954000D03*
X31251500Y-23749000D03*
X31877000Y-24257000D03*
X32575500Y-24701500D03*
X33147000Y-25336500D03*
D14*
X42300000Y-25080000D02*
X42147600Y-25080000D01*
X42147600Y-25080000D02*
X40767000Y-26460600D01*
X40767000Y-26460600D02*
X40767000Y-27432000D01*
X40767000Y-27432000D02*
X39941500Y-28257500D01*
X39941500Y-28257500D02*
X37832500Y-28257500D01*
D15*
G36*
X43359000Y-18497668D02*
X43316000Y-18488960D01*
X41284000Y-18488960D01*
X41048683Y-18533238D01*
X40832559Y-18672310D01*
X40687569Y-18884510D01*
X40636560Y-19136400D01*
X40636560Y-20863600D01*
X40680838Y-21098917D01*
X40819910Y-21315041D01*
X41032110Y-21460031D01*
X41073439Y-21468400D01*
X41055585Y-21480330D01*
X40730729Y-21966511D01*
X40616655Y-22540000D01*
X40730729Y-23113489D01*
X41055585Y-23599670D01*
X41370366Y-23810000D01*
X41055585Y-24020330D01*
X40730729Y-24506511D01*
X40616655Y-25080000D01*
X40692334Y-25460464D01*
X40229599Y-25923199D01*
X40064852Y-26169761D01*
X40007000Y-26460600D01*
X40007000Y-27117198D01*
X39626698Y-27497500D01*
X38394963Y-27497500D01*
X38362827Y-27465308D01*
X38019299Y-27322662D01*
X37647333Y-27322338D01*
X37303557Y-27464383D01*
X37299502Y-27468431D01*
X37042827Y-27211308D01*
X36699299Y-27068662D01*
X36327333Y-27068338D01*
X35983557Y-27210383D01*
X35720308Y-27473173D01*
X35703810Y-27512903D01*
X35628833Y-27512838D01*
X35285057Y-27654883D01*
X35021808Y-27917673D01*
X34879162Y-28261201D01*
X34878838Y-28633167D01*
X35020883Y-28976943D01*
X35283673Y-29240192D01*
X35627201Y-29382838D01*
X35999167Y-29383162D01*
X36342943Y-29241117D01*
X36606192Y-28978327D01*
X36622690Y-28938597D01*
X36697667Y-28938662D01*
X37041443Y-28796617D01*
X37045498Y-28792569D01*
X37302173Y-29049692D01*
X37645701Y-29192338D01*
X38017667Y-29192662D01*
X38361443Y-29050617D01*
X38394618Y-29017500D01*
X39941500Y-29017500D01*
X40232339Y-28959648D01*
X40478901Y-28794901D01*
X40870753Y-28403049D01*
X41055585Y-28679670D01*
X41370366Y-28890000D01*
X41055585Y-29100330D01*
X40730729Y-29586511D01*
X40616655Y-30160000D01*
X40730729Y-30733489D01*
X41055585Y-31219670D01*
X41370366Y-31430000D01*
X41254275Y-31507570D01*
X41085807Y-31338808D01*
X40742279Y-31196162D01*
X40370313Y-31195838D01*
X40026537Y-31337883D01*
X39763288Y-31600673D01*
X39620642Y-31944201D01*
X39620318Y-32316167D01*
X39762363Y-32659943D01*
X40025153Y-32923192D01*
X40368681Y-33065838D01*
X40689480Y-33066117D01*
X40730729Y-33273489D01*
X41055585Y-33759670D01*
X41370366Y-33970000D01*
X41055585Y-34180330D01*
X40730729Y-34666511D01*
X40616655Y-35240000D01*
X40730729Y-35813489D01*
X41055585Y-36299670D01*
X41370366Y-36510000D01*
X41055585Y-36720330D01*
X40730729Y-37206511D01*
X40616655Y-37780000D01*
X40730729Y-38353489D01*
X41055585Y-38839670D01*
X41370366Y-39050000D01*
X41055585Y-39260330D01*
X40730729Y-39746511D01*
X40616655Y-40320000D01*
X40730729Y-40893489D01*
X41055585Y-41379670D01*
X41370366Y-41590000D01*
X41055585Y-41800330D01*
X40730729Y-42286511D01*
X40616655Y-42860000D01*
X40730729Y-43433489D01*
X41055585Y-43919670D01*
X41370366Y-44130000D01*
X41055585Y-44340330D01*
X40730729Y-44826511D01*
X40616655Y-45400000D01*
X40730729Y-45973489D01*
X41055585Y-46459670D01*
X41365069Y-46666461D01*
X40949268Y-47037964D01*
X40695291Y-47565209D01*
X40692642Y-47580974D01*
X40813783Y-47813000D01*
X42173000Y-47813000D01*
X42173000Y-47793000D01*
X42427000Y-47793000D01*
X42427000Y-47813000D01*
X42447000Y-47813000D01*
X42447000Y-48067000D01*
X42427000Y-48067000D01*
X42427000Y-48087000D01*
X42173000Y-48087000D01*
X42173000Y-48067000D01*
X40813783Y-48067000D01*
X40692642Y-48299026D01*
X40695291Y-48314791D01*
X40949268Y-48842036D01*
X41208891Y-49074000D01*
X34374400Y-49074000D01*
X34374662Y-48773333D01*
X34232617Y-48429557D01*
X33969827Y-48166308D01*
X33626299Y-48023662D01*
X33254333Y-48023338D01*
X32910557Y-48165383D01*
X32647308Y-48428173D01*
X32504662Y-48771701D01*
X32504399Y-49074000D01*
X28133172Y-49074000D01*
X28244415Y-48999670D01*
X28569271Y-48513489D01*
X28683345Y-47940000D01*
X28569271Y-47366511D01*
X28244415Y-46880330D01*
X27929634Y-46670000D01*
X28244415Y-46459670D01*
X28275487Y-46413167D01*
X28717338Y-46413167D01*
X28859383Y-46756943D01*
X29122173Y-47020192D01*
X29465701Y-47162838D01*
X29837667Y-47163162D01*
X30181443Y-47021117D01*
X30444692Y-46758327D01*
X30587338Y-46414799D01*
X30587662Y-46042833D01*
X30445617Y-45699057D01*
X30182827Y-45435808D01*
X29839299Y-45293162D01*
X29467333Y-45292838D01*
X29123557Y-45434883D01*
X28860308Y-45697673D01*
X28717662Y-46041201D01*
X28717338Y-46413167D01*
X28275487Y-46413167D01*
X28569271Y-45973489D01*
X28683345Y-45400000D01*
X28569271Y-44826511D01*
X28244415Y-44340330D01*
X27929634Y-44130000D01*
X28244415Y-43919670D01*
X28275487Y-43873167D01*
X34688338Y-43873167D01*
X34830383Y-44216943D01*
X35093173Y-44480192D01*
X35436701Y-44622838D01*
X35808667Y-44623162D01*
X36152443Y-44481117D01*
X36415692Y-44218327D01*
X36558338Y-43874799D01*
X36558662Y-43502833D01*
X36416617Y-43159057D01*
X36153827Y-42895808D01*
X35810299Y-42753162D01*
X35438333Y-42752838D01*
X35094557Y-42894883D01*
X34831308Y-43157673D01*
X34688662Y-43501201D01*
X34688338Y-43873167D01*
X28275487Y-43873167D01*
X28569271Y-43433489D01*
X28683345Y-42860000D01*
X28569271Y-42286511D01*
X28244415Y-41800330D01*
X27929634Y-41590000D01*
X28244415Y-41379670D01*
X28569271Y-40893489D01*
X28683345Y-40320000D01*
X28569271Y-39746511D01*
X28244415Y-39260330D01*
X28115463Y-39174167D01*
X31195838Y-39174167D01*
X31337883Y-39517943D01*
X31600673Y-39781192D01*
X31944201Y-39923838D01*
X32316167Y-39924162D01*
X32659943Y-39782117D01*
X32772416Y-39669840D01*
X33141667Y-39670162D01*
X33485443Y-39528117D01*
X33748692Y-39265327D01*
X33891338Y-38921799D01*
X33891662Y-38549833D01*
X33749617Y-38206057D01*
X33486827Y-37942808D01*
X33143299Y-37800162D01*
X32771333Y-37799838D01*
X32427557Y-37941883D01*
X32315084Y-38054160D01*
X31945833Y-38053838D01*
X31602057Y-38195883D01*
X31338808Y-38458673D01*
X31196162Y-38802201D01*
X31195838Y-39174167D01*
X28115463Y-39174167D01*
X27929634Y-39050000D01*
X28244415Y-38839670D01*
X28569271Y-38353489D01*
X28683345Y-37780000D01*
X28569271Y-37206511D01*
X28244415Y-36720330D01*
X27929634Y-36510000D01*
X28244415Y-36299670D01*
X28569271Y-35813489D01*
X28683345Y-35240000D01*
X28569271Y-34666511D01*
X28398990Y-34411667D01*
X36596338Y-34411667D01*
X36738383Y-34755443D01*
X37001173Y-35018692D01*
X37344701Y-35161338D01*
X37716667Y-35161662D01*
X38060443Y-35019617D01*
X38323692Y-34756827D01*
X38466338Y-34413299D01*
X38466662Y-34041333D01*
X38324617Y-33697557D01*
X38061827Y-33434308D01*
X37718299Y-33291662D01*
X37346333Y-33291338D01*
X37002557Y-33433383D01*
X36739308Y-33696173D01*
X36596662Y-34039701D01*
X36596338Y-34411667D01*
X28398990Y-34411667D01*
X28244415Y-34180330D01*
X27929634Y-33970000D01*
X28244415Y-33759670D01*
X28569271Y-33273489D01*
X28683345Y-32700000D01*
X28639618Y-32480167D01*
X29571338Y-32480167D01*
X29713383Y-32823943D01*
X29976173Y-33087192D01*
X30319701Y-33229838D01*
X30691667Y-33230162D01*
X30884638Y-33150428D01*
X30910882Y-33213944D01*
X31173672Y-33477193D01*
X31517200Y-33619839D01*
X31889166Y-33620163D01*
X32232942Y-33478118D01*
X32496191Y-33215328D01*
X32638837Y-32871800D01*
X32639161Y-32499834D01*
X32583653Y-32365495D01*
X32796192Y-32153327D01*
X32938838Y-31809799D01*
X32939162Y-31437833D01*
X32797117Y-31094057D01*
X32534327Y-30830808D01*
X32190799Y-30688162D01*
X31818833Y-30687838D01*
X31475057Y-30829883D01*
X31211808Y-31092673D01*
X31069162Y-31436201D01*
X31069076Y-31535113D01*
X31036827Y-31502808D01*
X30693299Y-31360162D01*
X30321333Y-31359838D01*
X29977557Y-31501883D01*
X29714308Y-31764673D01*
X29571662Y-32108201D01*
X29571338Y-32480167D01*
X28639618Y-32480167D01*
X28569271Y-32126511D01*
X28244415Y-31640330D01*
X27929634Y-31430000D01*
X28244415Y-31219670D01*
X28569271Y-30733489D01*
X28683345Y-30160000D01*
X28569271Y-29586511D01*
X28244415Y-29100330D01*
X27929634Y-28890000D01*
X28005713Y-28839165D01*
X32338838Y-28839165D01*
X32480883Y-29182941D01*
X32743673Y-29446190D01*
X33087201Y-29588836D01*
X33459167Y-29589160D01*
X33802943Y-29447115D01*
X34066192Y-29184325D01*
X34208838Y-28840797D01*
X34209162Y-28468831D01*
X34067117Y-28125055D01*
X33804327Y-27861806D01*
X33460799Y-27719160D01*
X33088833Y-27718836D01*
X32745057Y-27860881D01*
X32481808Y-28123671D01*
X32339162Y-28467199D01*
X32338838Y-28839165D01*
X28005713Y-28839165D01*
X28244415Y-28679670D01*
X28569271Y-28193489D01*
X28683345Y-27620000D01*
X28569271Y-27046511D01*
X28244415Y-26560330D01*
X27929634Y-26350000D01*
X28244415Y-26139670D01*
X28569271Y-25653489D01*
X28683345Y-25080000D01*
X28569271Y-24506511D01*
X28244415Y-24020330D01*
X28115463Y-23934167D01*
X30316338Y-23934167D01*
X30458383Y-24277943D01*
X30721173Y-24541192D01*
X31036929Y-24672306D01*
X31083883Y-24785943D01*
X31346673Y-25049192D01*
X31690201Y-25191838D01*
X31766459Y-25191904D01*
X31782383Y-25230443D01*
X32045173Y-25493692D01*
X32232402Y-25571437D01*
X32353883Y-25865443D01*
X32616673Y-26128692D01*
X32960201Y-26271338D01*
X33332167Y-26271662D01*
X33675943Y-26129617D01*
X33939192Y-25866827D01*
X34081838Y-25523299D01*
X34082162Y-25151333D01*
X33940117Y-24807557D01*
X33677327Y-24544308D01*
X33490098Y-24466563D01*
X33368617Y-24172557D01*
X33105827Y-23909308D01*
X32762299Y-23766662D01*
X32686041Y-23766596D01*
X32670117Y-23728057D01*
X32407327Y-23464808D01*
X32091571Y-23333694D01*
X32044617Y-23220057D01*
X32000322Y-23175684D01*
X34895685Y-23175684D01*
X35037730Y-23519460D01*
X35300520Y-23782709D01*
X35392516Y-23820909D01*
X35442290Y-23941371D01*
X35339308Y-24044173D01*
X35196662Y-24387701D01*
X35196338Y-24759667D01*
X35338383Y-25103443D01*
X35601173Y-25366692D01*
X35944701Y-25509338D01*
X36316667Y-25509662D01*
X36660443Y-25367617D01*
X36923692Y-25104827D01*
X36992998Y-24937921D01*
X37269167Y-24938162D01*
X37302025Y-24924585D01*
X37301838Y-25139167D01*
X37443883Y-25482943D01*
X37706673Y-25746192D01*
X38050201Y-25888838D01*
X38422167Y-25889162D01*
X38765943Y-25747117D01*
X39029192Y-25484327D01*
X39171838Y-25140799D01*
X39172162Y-24768833D01*
X39030117Y-24425057D01*
X38844448Y-24239064D01*
X38844662Y-23993833D01*
X38702617Y-23650057D01*
X38439827Y-23386808D01*
X38096299Y-23244162D01*
X37724333Y-23243838D01*
X37669795Y-23266373D01*
X37614327Y-23210808D01*
X37270799Y-23068162D01*
X37090108Y-23068005D01*
X36852327Y-22829808D01*
X36760331Y-22791608D01*
X36706715Y-22661847D01*
X36823981Y-22379441D01*
X36824305Y-22007475D01*
X36682260Y-21663699D01*
X36419470Y-21400450D01*
X36075942Y-21257804D01*
X35703976Y-21257480D01*
X35360200Y-21399525D01*
X35096951Y-21662315D01*
X34954305Y-22005843D01*
X34953981Y-22377809D01*
X35013275Y-22521312D01*
X34896009Y-22803718D01*
X34895685Y-23175684D01*
X32000322Y-23175684D01*
X31781827Y-22956808D01*
X31438299Y-22814162D01*
X31066333Y-22813838D01*
X30722557Y-22955883D01*
X30459308Y-23218673D01*
X30316662Y-23562201D01*
X30316338Y-23934167D01*
X28115463Y-23934167D01*
X27929634Y-23810000D01*
X28244415Y-23599670D01*
X28569271Y-23113489D01*
X28683345Y-22540000D01*
X28569271Y-21966511D01*
X28244415Y-21480330D01*
X28230087Y-21470757D01*
X28251317Y-21466762D01*
X28467441Y-21327690D01*
X28612431Y-21115490D01*
X28663440Y-20863600D01*
X28663440Y-19136400D01*
X28619162Y-18901083D01*
X28480090Y-18684959D01*
X28267890Y-18539969D01*
X28016000Y-18488960D01*
X25984000Y-18488960D01*
X25983000Y-18489148D01*
X25983000Y-17907000D01*
X43359000Y-17907000D01*
X43359000Y-18497668D01*
X43359000Y-18497668D01*
G37*
X43359000Y-18497668D02*
X43316000Y-18488960D01*
X41284000Y-18488960D01*
X41048683Y-18533238D01*
X40832559Y-18672310D01*
X40687569Y-18884510D01*
X40636560Y-19136400D01*
X40636560Y-20863600D01*
X40680838Y-21098917D01*
X40819910Y-21315041D01*
X41032110Y-21460031D01*
X41073439Y-21468400D01*
X41055585Y-21480330D01*
X40730729Y-21966511D01*
X40616655Y-22540000D01*
X40730729Y-23113489D01*
X41055585Y-23599670D01*
X41370366Y-23810000D01*
X41055585Y-24020330D01*
X40730729Y-24506511D01*
X40616655Y-25080000D01*
X40692334Y-25460464D01*
X40229599Y-25923199D01*
X40064852Y-26169761D01*
X40007000Y-26460600D01*
X40007000Y-27117198D01*
X39626698Y-27497500D01*
X38394963Y-27497500D01*
X38362827Y-27465308D01*
X38019299Y-27322662D01*
X37647333Y-27322338D01*
X37303557Y-27464383D01*
X37299502Y-27468431D01*
X37042827Y-27211308D01*
X36699299Y-27068662D01*
X36327333Y-27068338D01*
X35983557Y-27210383D01*
X35720308Y-27473173D01*
X35703810Y-27512903D01*
X35628833Y-27512838D01*
X35285057Y-27654883D01*
X35021808Y-27917673D01*
X34879162Y-28261201D01*
X34878838Y-28633167D01*
X35020883Y-28976943D01*
X35283673Y-29240192D01*
X35627201Y-29382838D01*
X35999167Y-29383162D01*
X36342943Y-29241117D01*
X36606192Y-28978327D01*
X36622690Y-28938597D01*
X36697667Y-28938662D01*
X37041443Y-28796617D01*
X37045498Y-28792569D01*
X37302173Y-29049692D01*
X37645701Y-29192338D01*
X38017667Y-29192662D01*
X38361443Y-29050617D01*
X38394618Y-29017500D01*
X39941500Y-29017500D01*
X40232339Y-28959648D01*
X40478901Y-28794901D01*
X40870753Y-28403049D01*
X41055585Y-28679670D01*
X41370366Y-28890000D01*
X41055585Y-29100330D01*
X40730729Y-29586511D01*
X40616655Y-30160000D01*
X40730729Y-30733489D01*
X41055585Y-31219670D01*
X41370366Y-31430000D01*
X41254275Y-31507570D01*
X41085807Y-31338808D01*
X40742279Y-31196162D01*
X40370313Y-31195838D01*
X40026537Y-31337883D01*
X39763288Y-31600673D01*
X39620642Y-31944201D01*
X39620318Y-32316167D01*
X39762363Y-32659943D01*
X40025153Y-32923192D01*
X40368681Y-33065838D01*
X40689480Y-33066117D01*
X40730729Y-33273489D01*
X41055585Y-33759670D01*
X41370366Y-33970000D01*
X41055585Y-34180330D01*
X40730729Y-34666511D01*
X40616655Y-35240000D01*
X40730729Y-35813489D01*
X41055585Y-36299670D01*
X41370366Y-36510000D01*
X41055585Y-36720330D01*
X40730729Y-37206511D01*
X40616655Y-37780000D01*
X40730729Y-38353489D01*
X41055585Y-38839670D01*
X41370366Y-39050000D01*
X41055585Y-39260330D01*
X40730729Y-39746511D01*
X40616655Y-40320000D01*
X40730729Y-40893489D01*
X41055585Y-41379670D01*
X41370366Y-41590000D01*
X41055585Y-41800330D01*
X40730729Y-42286511D01*
X40616655Y-42860000D01*
X40730729Y-43433489D01*
X41055585Y-43919670D01*
X41370366Y-44130000D01*
X41055585Y-44340330D01*
X40730729Y-44826511D01*
X40616655Y-45400000D01*
X40730729Y-45973489D01*
X41055585Y-46459670D01*
X41365069Y-46666461D01*
X40949268Y-47037964D01*
X40695291Y-47565209D01*
X40692642Y-47580974D01*
X40813783Y-47813000D01*
X42173000Y-47813000D01*
X42173000Y-47793000D01*
X42427000Y-47793000D01*
X42427000Y-47813000D01*
X42447000Y-47813000D01*
X42447000Y-48067000D01*
X42427000Y-48067000D01*
X42427000Y-48087000D01*
X42173000Y-48087000D01*
X42173000Y-48067000D01*
X40813783Y-48067000D01*
X40692642Y-48299026D01*
X40695291Y-48314791D01*
X40949268Y-48842036D01*
X41208891Y-49074000D01*
X34374400Y-49074000D01*
X34374662Y-48773333D01*
X34232617Y-48429557D01*
X33969827Y-48166308D01*
X33626299Y-48023662D01*
X33254333Y-48023338D01*
X32910557Y-48165383D01*
X32647308Y-48428173D01*
X32504662Y-48771701D01*
X32504399Y-49074000D01*
X28133172Y-49074000D01*
X28244415Y-48999670D01*
X28569271Y-48513489D01*
X28683345Y-47940000D01*
X28569271Y-47366511D01*
X28244415Y-46880330D01*
X27929634Y-46670000D01*
X28244415Y-46459670D01*
X28275487Y-46413167D01*
X28717338Y-46413167D01*
X28859383Y-46756943D01*
X29122173Y-47020192D01*
X29465701Y-47162838D01*
X29837667Y-47163162D01*
X30181443Y-47021117D01*
X30444692Y-46758327D01*
X30587338Y-46414799D01*
X30587662Y-46042833D01*
X30445617Y-45699057D01*
X30182827Y-45435808D01*
X29839299Y-45293162D01*
X29467333Y-45292838D01*
X29123557Y-45434883D01*
X28860308Y-45697673D01*
X28717662Y-46041201D01*
X28717338Y-46413167D01*
X28275487Y-46413167D01*
X28569271Y-45973489D01*
X28683345Y-45400000D01*
X28569271Y-44826511D01*
X28244415Y-44340330D01*
X27929634Y-44130000D01*
X28244415Y-43919670D01*
X28275487Y-43873167D01*
X34688338Y-43873167D01*
X34830383Y-44216943D01*
X35093173Y-44480192D01*
X35436701Y-44622838D01*
X35808667Y-44623162D01*
X36152443Y-44481117D01*
X36415692Y-44218327D01*
X36558338Y-43874799D01*
X36558662Y-43502833D01*
X36416617Y-43159057D01*
X36153827Y-42895808D01*
X35810299Y-42753162D01*
X35438333Y-42752838D01*
X35094557Y-42894883D01*
X34831308Y-43157673D01*
X34688662Y-43501201D01*
X34688338Y-43873167D01*
X28275487Y-43873167D01*
X28569271Y-43433489D01*
X28683345Y-42860000D01*
X28569271Y-42286511D01*
X28244415Y-41800330D01*
X27929634Y-41590000D01*
X28244415Y-41379670D01*
X28569271Y-40893489D01*
X28683345Y-40320000D01*
X28569271Y-39746511D01*
X28244415Y-39260330D01*
X28115463Y-39174167D01*
X31195838Y-39174167D01*
X31337883Y-39517943D01*
X31600673Y-39781192D01*
X31944201Y-39923838D01*
X32316167Y-39924162D01*
X32659943Y-39782117D01*
X32772416Y-39669840D01*
X33141667Y-39670162D01*
X33485443Y-39528117D01*
X33748692Y-39265327D01*
X33891338Y-38921799D01*
X33891662Y-38549833D01*
X33749617Y-38206057D01*
X33486827Y-37942808D01*
X33143299Y-37800162D01*
X32771333Y-37799838D01*
X32427557Y-37941883D01*
X32315084Y-38054160D01*
X31945833Y-38053838D01*
X31602057Y-38195883D01*
X31338808Y-38458673D01*
X31196162Y-38802201D01*
X31195838Y-39174167D01*
X28115463Y-39174167D01*
X27929634Y-39050000D01*
X28244415Y-38839670D01*
X28569271Y-38353489D01*
X28683345Y-37780000D01*
X28569271Y-37206511D01*
X28244415Y-36720330D01*
X27929634Y-36510000D01*
X28244415Y-36299670D01*
X28569271Y-35813489D01*
X28683345Y-35240000D01*
X28569271Y-34666511D01*
X28398990Y-34411667D01*
X36596338Y-34411667D01*
X36738383Y-34755443D01*
X37001173Y-35018692D01*
X37344701Y-35161338D01*
X37716667Y-35161662D01*
X38060443Y-35019617D01*
X38323692Y-34756827D01*
X38466338Y-34413299D01*
X38466662Y-34041333D01*
X38324617Y-33697557D01*
X38061827Y-33434308D01*
X37718299Y-33291662D01*
X37346333Y-33291338D01*
X37002557Y-33433383D01*
X36739308Y-33696173D01*
X36596662Y-34039701D01*
X36596338Y-34411667D01*
X28398990Y-34411667D01*
X28244415Y-34180330D01*
X27929634Y-33970000D01*
X28244415Y-33759670D01*
X28569271Y-33273489D01*
X28683345Y-32700000D01*
X28639618Y-32480167D01*
X29571338Y-32480167D01*
X29713383Y-32823943D01*
X29976173Y-33087192D01*
X30319701Y-33229838D01*
X30691667Y-33230162D01*
X30884638Y-33150428D01*
X30910882Y-33213944D01*
X31173672Y-33477193D01*
X31517200Y-33619839D01*
X31889166Y-33620163D01*
X32232942Y-33478118D01*
X32496191Y-33215328D01*
X32638837Y-32871800D01*
X32639161Y-32499834D01*
X32583653Y-32365495D01*
X32796192Y-32153327D01*
X32938838Y-31809799D01*
X32939162Y-31437833D01*
X32797117Y-31094057D01*
X32534327Y-30830808D01*
X32190799Y-30688162D01*
X31818833Y-30687838D01*
X31475057Y-30829883D01*
X31211808Y-31092673D01*
X31069162Y-31436201D01*
X31069076Y-31535113D01*
X31036827Y-31502808D01*
X30693299Y-31360162D01*
X30321333Y-31359838D01*
X29977557Y-31501883D01*
X29714308Y-31764673D01*
X29571662Y-32108201D01*
X29571338Y-32480167D01*
X28639618Y-32480167D01*
X28569271Y-32126511D01*
X28244415Y-31640330D01*
X27929634Y-31430000D01*
X28244415Y-31219670D01*
X28569271Y-30733489D01*
X28683345Y-30160000D01*
X28569271Y-29586511D01*
X28244415Y-29100330D01*
X27929634Y-28890000D01*
X28005713Y-28839165D01*
X32338838Y-28839165D01*
X32480883Y-29182941D01*
X32743673Y-29446190D01*
X33087201Y-29588836D01*
X33459167Y-29589160D01*
X33802943Y-29447115D01*
X34066192Y-29184325D01*
X34208838Y-28840797D01*
X34209162Y-28468831D01*
X34067117Y-28125055D01*
X33804327Y-27861806D01*
X33460799Y-27719160D01*
X33088833Y-27718836D01*
X32745057Y-27860881D01*
X32481808Y-28123671D01*
X32339162Y-28467199D01*
X32338838Y-28839165D01*
X28005713Y-28839165D01*
X28244415Y-28679670D01*
X28569271Y-28193489D01*
X28683345Y-27620000D01*
X28569271Y-27046511D01*
X28244415Y-26560330D01*
X27929634Y-26350000D01*
X28244415Y-26139670D01*
X28569271Y-25653489D01*
X28683345Y-25080000D01*
X28569271Y-24506511D01*
X28244415Y-24020330D01*
X28115463Y-23934167D01*
X30316338Y-23934167D01*
X30458383Y-24277943D01*
X30721173Y-24541192D01*
X31036929Y-24672306D01*
X31083883Y-24785943D01*
X31346673Y-25049192D01*
X31690201Y-25191838D01*
X31766459Y-25191904D01*
X31782383Y-25230443D01*
X32045173Y-25493692D01*
X32232402Y-25571437D01*
X32353883Y-25865443D01*
X32616673Y-26128692D01*
X32960201Y-26271338D01*
X33332167Y-26271662D01*
X33675943Y-26129617D01*
X33939192Y-25866827D01*
X34081838Y-25523299D01*
X34082162Y-25151333D01*
X33940117Y-24807557D01*
X33677327Y-24544308D01*
X33490098Y-24466563D01*
X33368617Y-24172557D01*
X33105827Y-23909308D01*
X32762299Y-23766662D01*
X32686041Y-23766596D01*
X32670117Y-23728057D01*
X32407327Y-23464808D01*
X32091571Y-23333694D01*
X32044617Y-23220057D01*
X32000322Y-23175684D01*
X34895685Y-23175684D01*
X35037730Y-23519460D01*
X35300520Y-23782709D01*
X35392516Y-23820909D01*
X35442290Y-23941371D01*
X35339308Y-24044173D01*
X35196662Y-24387701D01*
X35196338Y-24759667D01*
X35338383Y-25103443D01*
X35601173Y-25366692D01*
X35944701Y-25509338D01*
X36316667Y-25509662D01*
X36660443Y-25367617D01*
X36923692Y-25104827D01*
X36992998Y-24937921D01*
X37269167Y-24938162D01*
X37302025Y-24924585D01*
X37301838Y-25139167D01*
X37443883Y-25482943D01*
X37706673Y-25746192D01*
X38050201Y-25888838D01*
X38422167Y-25889162D01*
X38765943Y-25747117D01*
X39029192Y-25484327D01*
X39171838Y-25140799D01*
X39172162Y-24768833D01*
X39030117Y-24425057D01*
X38844448Y-24239064D01*
X38844662Y-23993833D01*
X38702617Y-23650057D01*
X38439827Y-23386808D01*
X38096299Y-23244162D01*
X37724333Y-23243838D01*
X37669795Y-23266373D01*
X37614327Y-23210808D01*
X37270799Y-23068162D01*
X37090108Y-23068005D01*
X36852327Y-22829808D01*
X36760331Y-22791608D01*
X36706715Y-22661847D01*
X36823981Y-22379441D01*
X36824305Y-22007475D01*
X36682260Y-21663699D01*
X36419470Y-21400450D01*
X36075942Y-21257804D01*
X35703976Y-21257480D01*
X35360200Y-21399525D01*
X35096951Y-21662315D01*
X34954305Y-22005843D01*
X34953981Y-22377809D01*
X35013275Y-22521312D01*
X34896009Y-22803718D01*
X34895685Y-23175684D01*
X32000322Y-23175684D01*
X31781827Y-22956808D01*
X31438299Y-22814162D01*
X31066333Y-22813838D01*
X30722557Y-22955883D01*
X30459308Y-23218673D01*
X30316662Y-23562201D01*
X30316338Y-23934167D01*
X28115463Y-23934167D01*
X27929634Y-23810000D01*
X28244415Y-23599670D01*
X28569271Y-23113489D01*
X28683345Y-22540000D01*
X28569271Y-21966511D01*
X28244415Y-21480330D01*
X28230087Y-21470757D01*
X28251317Y-21466762D01*
X28467441Y-21327690D01*
X28612431Y-21115490D01*
X28663440Y-20863600D01*
X28663440Y-19136400D01*
X28619162Y-18901083D01*
X28480090Y-18684959D01*
X28267890Y-18539969D01*
X28016000Y-18488960D01*
X25984000Y-18488960D01*
X25983000Y-18489148D01*
X25983000Y-17907000D01*
X43359000Y-17907000D01*
X43359000Y-18497668D01*
M02*
