G04 #@! TF.FileFunction,Copper,L1,Top,Signal*
%FSLAX46Y46*%
G04 Gerber Fmt 4.6, Leading zero omitted, Abs format (unit mm)*
G04 Created by KiCad (PCBNEW 4.0.4-stable) date 06/20/17 22:04:30*
%MOMM*%
%LPD*%
G01*
G04 APERTURE LIST*
%ADD10C,0.100000*%
%ADD11R,2.032000X1.727200*%
%ADD12O,2.032000X1.727200*%
%ADD13R,0.750000X0.800000*%
%ADD14R,0.800000X0.800000*%
%ADD15R,0.900000X0.500000*%
%ADD16R,1.400000X0.800000*%
%ADD17R,1.000000X0.400000*%
%ADD18R,1.400000X0.400000*%
%ADD19R,0.400000X1.400000*%
%ADD20R,0.400000X1.100000*%
%ADD21C,0.600000*%
%ADD22C,0.250000*%
%ADD23C,0.254000*%
G04 APERTURE END LIST*
D10*
D11*
X27000000Y-20000000D03*
D12*
X27000000Y-22540000D03*
X27000000Y-25080000D03*
X27000000Y-27620000D03*
X27000000Y-30160000D03*
X27000000Y-32700000D03*
X27000000Y-35240000D03*
X27000000Y-37780000D03*
X27000000Y-40320000D03*
X27000000Y-42860000D03*
X27000000Y-45400000D03*
X27000000Y-47940000D03*
D11*
X42300000Y-20000000D03*
D12*
X42300000Y-22540000D03*
X42300000Y-25080000D03*
X42300000Y-27620000D03*
X42300000Y-30160000D03*
X42300000Y-32700000D03*
X42300000Y-35240000D03*
X42300000Y-37780000D03*
X42300000Y-40320000D03*
X42300000Y-42860000D03*
X42300000Y-45400000D03*
X42300000Y-47940000D03*
D13*
X37846000Y-33262000D03*
X37846000Y-31762000D03*
X39433500Y-33262000D03*
X39433500Y-31762000D03*
D14*
X34798000Y-40995500D03*
X34798000Y-39395500D03*
D15*
X34798000Y-35127500D03*
X34798000Y-36627500D03*
D16*
X39306500Y-18454000D03*
D17*
X37606500Y-20404000D03*
D18*
X39306500Y-20054000D03*
X39306500Y-20754000D03*
X39306500Y-21454000D03*
X39306500Y-22154000D03*
X39306500Y-22854000D03*
X39306500Y-23554000D03*
X39306500Y-24254000D03*
X39306500Y-24954000D03*
X39306500Y-25654000D03*
X39306500Y-26354000D03*
X39306500Y-27054000D03*
X39306500Y-27754000D03*
X39306500Y-28454000D03*
D19*
X38206500Y-29854000D03*
X37506500Y-29854000D03*
X36806500Y-29854000D03*
X36106500Y-29854000D03*
X35406500Y-29854000D03*
X34706500Y-29854000D03*
X34006500Y-29854000D03*
D20*
X38906500Y-29704000D03*
D19*
X33306500Y-29854000D03*
X32606500Y-29854000D03*
X31806500Y-29854000D03*
X31206500Y-29854000D03*
D20*
X30506500Y-29704000D03*
D16*
X30106500Y-18454000D03*
D18*
X30106500Y-21454000D03*
X30106500Y-22154000D03*
X30106500Y-22854000D03*
X30106500Y-23554000D03*
X30106500Y-24254000D03*
X30106500Y-24954000D03*
X30106500Y-25654000D03*
X30106500Y-26354000D03*
X30106500Y-27054000D03*
X30106500Y-27754000D03*
X39306500Y-19354000D03*
D17*
X37606500Y-19004000D03*
D21*
X30506500Y-32295000D03*
X40555480Y-32131000D03*
X37531500Y-34226500D03*
X35814000Y-28448000D03*
X35623500Y-43688000D03*
X33439500Y-48958500D03*
X29652500Y-46228000D03*
X32956500Y-38735000D03*
X32131000Y-38989000D03*
X36512500Y-28003500D03*
X30543500Y-28448000D03*
X36323020Y-33464500D03*
X37719000Y-46037500D03*
X33782000Y-41211500D03*
X37832500Y-28257500D03*
X36131500Y-24574500D03*
X31703999Y-32685001D03*
X32004000Y-31623000D03*
X33274000Y-28653998D03*
X35830847Y-22990517D03*
X35889143Y-22192642D03*
X36322000Y-23622000D03*
X37084000Y-24003000D03*
X37909500Y-24179000D03*
X38237000Y-24954000D03*
X31251500Y-23749000D03*
X31877000Y-24257000D03*
X32575500Y-24701500D03*
X33147000Y-25336500D03*
D22*
X30506500Y-29704000D02*
X30506500Y-32295000D01*
X40513000Y-30860500D02*
X40513000Y-32088520D01*
X40513000Y-32088520D02*
X40555480Y-32131000D01*
X38906500Y-29704000D02*
X39356500Y-29704000D01*
X39356500Y-29704000D02*
X40513000Y-30860500D01*
X37846000Y-33262000D02*
X37846000Y-33912000D01*
X37846000Y-33912000D02*
X37531500Y-34226500D01*
X37846000Y-33262000D02*
X39433500Y-33262000D01*
X30350500Y-28448000D02*
X30543500Y-28448000D01*
X30106500Y-27754000D02*
X30106500Y-28204000D01*
X30106500Y-28204000D02*
X30350500Y-28448000D01*
X33998000Y-40995500D02*
X33782000Y-41211500D01*
X34798000Y-40995500D02*
X33998000Y-40995500D01*
X42300000Y-25080000D02*
X41034000Y-25080000D01*
X40331501Y-20829001D02*
X40256500Y-20754000D01*
X41034000Y-25080000D02*
X40703500Y-24749500D01*
X40703500Y-24749500D02*
X40703500Y-23495000D01*
X40703500Y-23495000D02*
X40331501Y-23123001D01*
X40331501Y-23123001D02*
X40331501Y-20829001D01*
X40256500Y-20754000D02*
X39306500Y-20754000D01*
X40781511Y-20642601D02*
X40781511Y-21173911D01*
X42147600Y-22540000D02*
X42300000Y-22540000D01*
X40781511Y-21173911D02*
X42147600Y-22540000D01*
X40767000Y-20564500D02*
X40767000Y-20628090D01*
X40767000Y-20628090D02*
X40781511Y-20642601D01*
X39306500Y-20054000D02*
X40256500Y-20054000D01*
X40256500Y-20054000D02*
X40767000Y-20564500D01*
X39433500Y-31762000D02*
X39433500Y-31112000D01*
X39433500Y-31112000D02*
X39182500Y-30861000D01*
X39182500Y-30861000D02*
X38728498Y-30861000D01*
X38206500Y-29854000D02*
X38206500Y-30339002D01*
X38206500Y-30339002D02*
X38728498Y-30861000D01*
X37846000Y-31762000D02*
X37506500Y-31422500D01*
X37506500Y-31422500D02*
X37506500Y-29854000D01*
X37506500Y-31657000D02*
X37338000Y-31825500D01*
X30106500Y-26354000D02*
X35368000Y-26354000D01*
X35368000Y-26354000D02*
X36131500Y-25590500D01*
X36131500Y-25590500D02*
X36131500Y-24574500D01*
X31703999Y-32248001D02*
X31703999Y-32685001D01*
X31206500Y-31087000D02*
X31206500Y-31270000D01*
X31206500Y-31270000D02*
X31356490Y-31419990D01*
X31356490Y-31419990D02*
X31356490Y-31900492D01*
X31356490Y-31900492D02*
X31703999Y-32248001D01*
X31206500Y-29854000D02*
X31206500Y-31087000D01*
X31806500Y-31425500D02*
X32004000Y-31623000D01*
X31806500Y-30804000D02*
X31806500Y-31425500D01*
X31806500Y-29854000D02*
X31806500Y-30804000D01*
X34798000Y-36627500D02*
X34798000Y-39395500D01*
X33274000Y-28653998D02*
X32849736Y-28653998D01*
X32849736Y-28653998D02*
X32770738Y-28575000D01*
X32770738Y-28575000D02*
X31877000Y-28575000D01*
X30891502Y-27054000D02*
X31369000Y-27531498D01*
X31369000Y-27531498D02*
X31369000Y-28067000D01*
X30106500Y-27054000D02*
X30891502Y-27054000D01*
X31369000Y-28067000D02*
X31877000Y-28575000D01*
X36058001Y-22996999D02*
X36051519Y-22990517D01*
X36051519Y-22990517D02*
X35830847Y-22990517D01*
X37856520Y-22653980D02*
X36653609Y-22653981D01*
X36653609Y-22653981D02*
X36310591Y-22996999D01*
X36310591Y-22996999D02*
X36058001Y-22996999D01*
X39306500Y-22154000D02*
X38356500Y-22154000D01*
X38356500Y-22154000D02*
X37856520Y-22653980D01*
X36319182Y-22352000D02*
X36048501Y-22352000D01*
X36048501Y-22352000D02*
X35889143Y-22192642D01*
X37649000Y-22161500D02*
X36509682Y-22161500D01*
X36509682Y-22161500D02*
X36319182Y-22352000D01*
X39306500Y-21454000D02*
X38356500Y-21454000D01*
X38356500Y-21454000D02*
X37649000Y-22161500D01*
X36840010Y-23103990D02*
X36322000Y-23622000D01*
X38106510Y-23103990D02*
X36840010Y-23103990D01*
X39306500Y-22854000D02*
X38356500Y-22854000D01*
X38356500Y-22854000D02*
X38106510Y-23103990D01*
X37533000Y-23554000D02*
X37084000Y-24003000D01*
X39306500Y-23554000D02*
X37533000Y-23554000D01*
X38097000Y-24254000D02*
X38022000Y-24179000D01*
X38022000Y-24179000D02*
X37909500Y-24179000D01*
X39306500Y-24254000D02*
X38097000Y-24254000D01*
X39306500Y-24954000D02*
X38237000Y-24954000D01*
X38354000Y-24956500D02*
X38239500Y-24956500D01*
X38239500Y-24956500D02*
X38237000Y-24954000D01*
X39876910Y-42860000D02*
X38671500Y-41654590D01*
X35698020Y-34172610D02*
X38417500Y-36892090D01*
X36106500Y-29854000D02*
X36106500Y-30804000D01*
X35698020Y-31212480D02*
X35698020Y-34172610D01*
X36106500Y-30804000D02*
X35698020Y-31212480D01*
X38417500Y-41400590D02*
X38671500Y-41654590D01*
X38417500Y-36892090D02*
X38417500Y-41400590D01*
X42300000Y-42860000D02*
X39876910Y-42860000D01*
X42300000Y-45400000D02*
X41034000Y-45400000D01*
X41034000Y-45400000D02*
X38036500Y-42402500D01*
X38036500Y-42402500D02*
X38021000Y-42402500D01*
X38021000Y-42402500D02*
X37967490Y-42348990D01*
X37967490Y-37078490D02*
X35248010Y-34359010D01*
X37967490Y-42348990D02*
X37967490Y-37078490D01*
X35248010Y-34359010D02*
X35248010Y-30962490D01*
X35248010Y-30962490D02*
X35406500Y-30804000D01*
X35406500Y-30804000D02*
X35406500Y-29854000D01*
X42300000Y-45400000D02*
X42147600Y-45400000D01*
X42147600Y-45400000D02*
X42145100Y-45402500D01*
X42145100Y-45402500D02*
X41783000Y-45402500D01*
X34798000Y-30895500D02*
X34798000Y-35127500D01*
X34706500Y-29854000D02*
X34706500Y-30804000D01*
X34706500Y-30804000D02*
X34798000Y-30895500D01*
X29856020Y-44184980D02*
X28641000Y-45400000D01*
X28641000Y-45400000D02*
X27000000Y-45400000D01*
X29856020Y-35615300D02*
X29856020Y-44184980D01*
X30789300Y-34682020D02*
X29856020Y-35615300D01*
X33011800Y-34682020D02*
X30789300Y-34682020D01*
X34301018Y-33392802D02*
X33011800Y-34682020D01*
X34301019Y-31821699D02*
X34301018Y-33392802D01*
X34006500Y-29854000D02*
X34006500Y-31527180D01*
X34006500Y-31527180D02*
X34301019Y-31821699D01*
X33306500Y-29854000D02*
X33306500Y-31463590D01*
X33306500Y-31463590D02*
X33851010Y-32008100D01*
X33851010Y-32008100D02*
X33851009Y-33206401D01*
X33851009Y-33206401D02*
X32825400Y-34232010D01*
X32825400Y-34232010D02*
X30602900Y-34232010D01*
X30602900Y-34232010D02*
X29406010Y-35428900D01*
X29406010Y-35428900D02*
X29406010Y-41967990D01*
X29406010Y-41967990D02*
X28514000Y-42860000D01*
X28514000Y-42860000D02*
X27000000Y-42860000D01*
X33401000Y-33020000D02*
X32639000Y-33782000D01*
X32606500Y-29854000D02*
X32606500Y-31400000D01*
X32606500Y-31400000D02*
X33401000Y-32194500D01*
X33401000Y-32194500D02*
X33401000Y-33020000D01*
X28956000Y-39814500D02*
X28450500Y-40320000D01*
X28450500Y-40320000D02*
X27000000Y-40320000D01*
X28956000Y-35242500D02*
X28956000Y-39814500D01*
X30416500Y-33782000D02*
X28956000Y-35242500D01*
X32639000Y-33782000D02*
X30416500Y-33782000D01*
X30106500Y-21454000D02*
X28086000Y-21454000D01*
X28086000Y-21454000D02*
X27000000Y-22540000D01*
X30106500Y-22154000D02*
X28836500Y-22154000D01*
X28013500Y-24066500D02*
X27000000Y-25080000D01*
X28836500Y-22154000D02*
X28448000Y-22542500D01*
X28448000Y-22542500D02*
X28448000Y-23784400D01*
X28448000Y-23784400D02*
X28165900Y-24066500D01*
X28165900Y-24066500D02*
X28013500Y-24066500D01*
X27152400Y-25080000D02*
X27000000Y-25080000D01*
X27000000Y-27483000D02*
X27749500Y-26733500D01*
X27749500Y-26733500D02*
X27749500Y-26479500D01*
X27000000Y-27620000D02*
X27000000Y-27483000D01*
X28898010Y-25330990D02*
X27749500Y-26479500D01*
X28898010Y-23044990D02*
X28898010Y-25330990D01*
X30106500Y-22854000D02*
X29089000Y-22854000D01*
X29089000Y-22854000D02*
X28898010Y-23044990D01*
X27152400Y-27620000D02*
X27000000Y-27620000D01*
X30106500Y-23554000D02*
X31056500Y-23554000D01*
X31056500Y-23554000D02*
X31251500Y-23749000D01*
X31759999Y-24374001D02*
X31877000Y-24257000D01*
X30106500Y-24254000D02*
X30226501Y-24374001D01*
X30226501Y-24374001D02*
X31759999Y-24374001D01*
X32450000Y-24954000D02*
X32575500Y-24828500D01*
X32575500Y-24828500D02*
X32575500Y-24701500D01*
X30106500Y-24954000D02*
X32450000Y-24954000D01*
X32829500Y-25654000D02*
X33147000Y-25336500D01*
X30106500Y-25654000D02*
X32829500Y-25654000D01*
D23*
G36*
X33700560Y-35377500D02*
X33744838Y-35612817D01*
X33883910Y-35828941D01*
X33953711Y-35876634D01*
X33896559Y-35913410D01*
X33751569Y-36125610D01*
X33700560Y-36377500D01*
X33700560Y-36877500D01*
X33744838Y-37112817D01*
X33883910Y-37328941D01*
X34038000Y-37434226D01*
X34038000Y-38472569D01*
X33946559Y-38531410D01*
X33801569Y-38743610D01*
X33750560Y-38995500D01*
X33750560Y-39795500D01*
X33794838Y-40030817D01*
X33901759Y-40196977D01*
X33856160Y-40263714D01*
X33791841Y-40276508D01*
X33596833Y-40276338D01*
X33253057Y-40418383D01*
X32989808Y-40681173D01*
X32847162Y-41024701D01*
X32846838Y-41396667D01*
X32988883Y-41740443D01*
X33251673Y-42003692D01*
X33595201Y-42146338D01*
X33967167Y-42146662D01*
X34277333Y-42018504D01*
X34398000Y-42042940D01*
X35198000Y-42042940D01*
X35433317Y-41998662D01*
X35649441Y-41859590D01*
X35794431Y-41647390D01*
X35845440Y-41395500D01*
X35845440Y-40595500D01*
X35801162Y-40360183D01*
X35694241Y-40194023D01*
X35794431Y-40047390D01*
X35845440Y-39795500D01*
X35845440Y-38995500D01*
X35801162Y-38760183D01*
X35662090Y-38544059D01*
X35558000Y-38472937D01*
X35558000Y-37432605D01*
X35699441Y-37341590D01*
X35844431Y-37129390D01*
X35895440Y-36877500D01*
X35895440Y-36377500D01*
X35851162Y-36142183D01*
X35712090Y-35926059D01*
X35642289Y-35878366D01*
X35672880Y-35858682D01*
X37207490Y-37393293D01*
X37207490Y-42348990D01*
X37265342Y-42639829D01*
X37430089Y-42886391D01*
X37483599Y-42939901D01*
X37530311Y-42971113D01*
X40496599Y-45937401D01*
X40743161Y-46102148D01*
X40827968Y-46119017D01*
X41055585Y-46459670D01*
X41370366Y-46670000D01*
X41055585Y-46880330D01*
X40730729Y-47366511D01*
X40616655Y-47940000D01*
X40730729Y-48513489D01*
X41055585Y-48999670D01*
X41166828Y-49074000D01*
X28133172Y-49074000D01*
X28244415Y-48999670D01*
X28569271Y-48513489D01*
X28683345Y-47940000D01*
X28569271Y-47366511D01*
X28244415Y-46880330D01*
X27929634Y-46670000D01*
X28244415Y-46459670D01*
X28402775Y-46222667D01*
X36783838Y-46222667D01*
X36925883Y-46566443D01*
X37188673Y-46829692D01*
X37532201Y-46972338D01*
X37904167Y-46972662D01*
X38247943Y-46830617D01*
X38511192Y-46567827D01*
X38653838Y-46224299D01*
X38654162Y-45852333D01*
X38512117Y-45508557D01*
X38249327Y-45245308D01*
X37905799Y-45102662D01*
X37533833Y-45102338D01*
X37190057Y-45244383D01*
X36926808Y-45507173D01*
X36784162Y-45850701D01*
X36783838Y-46222667D01*
X28402775Y-46222667D01*
X28444648Y-46160000D01*
X28641000Y-46160000D01*
X28931839Y-46102148D01*
X29178401Y-45937401D01*
X30393421Y-44722381D01*
X30558168Y-44475819D01*
X30616020Y-44184980D01*
X30616020Y-35930102D01*
X31104102Y-35442020D01*
X33011800Y-35442020D01*
X33302639Y-35384168D01*
X33549201Y-35219421D01*
X33700560Y-35068062D01*
X33700560Y-35377500D01*
X33700560Y-35377500D01*
G37*
X33700560Y-35377500D02*
X33744838Y-35612817D01*
X33883910Y-35828941D01*
X33953711Y-35876634D01*
X33896559Y-35913410D01*
X33751569Y-36125610D01*
X33700560Y-36377500D01*
X33700560Y-36877500D01*
X33744838Y-37112817D01*
X33883910Y-37328941D01*
X34038000Y-37434226D01*
X34038000Y-38472569D01*
X33946559Y-38531410D01*
X33801569Y-38743610D01*
X33750560Y-38995500D01*
X33750560Y-39795500D01*
X33794838Y-40030817D01*
X33901759Y-40196977D01*
X33856160Y-40263714D01*
X33791841Y-40276508D01*
X33596833Y-40276338D01*
X33253057Y-40418383D01*
X32989808Y-40681173D01*
X32847162Y-41024701D01*
X32846838Y-41396667D01*
X32988883Y-41740443D01*
X33251673Y-42003692D01*
X33595201Y-42146338D01*
X33967167Y-42146662D01*
X34277333Y-42018504D01*
X34398000Y-42042940D01*
X35198000Y-42042940D01*
X35433317Y-41998662D01*
X35649441Y-41859590D01*
X35794431Y-41647390D01*
X35845440Y-41395500D01*
X35845440Y-40595500D01*
X35801162Y-40360183D01*
X35694241Y-40194023D01*
X35794431Y-40047390D01*
X35845440Y-39795500D01*
X35845440Y-38995500D01*
X35801162Y-38760183D01*
X35662090Y-38544059D01*
X35558000Y-38472937D01*
X35558000Y-37432605D01*
X35699441Y-37341590D01*
X35844431Y-37129390D01*
X35895440Y-36877500D01*
X35895440Y-36377500D01*
X35851162Y-36142183D01*
X35712090Y-35926059D01*
X35642289Y-35878366D01*
X35672880Y-35858682D01*
X37207490Y-37393293D01*
X37207490Y-42348990D01*
X37265342Y-42639829D01*
X37430089Y-42886391D01*
X37483599Y-42939901D01*
X37530311Y-42971113D01*
X40496599Y-45937401D01*
X40743161Y-46102148D01*
X40827968Y-46119017D01*
X41055585Y-46459670D01*
X41370366Y-46670000D01*
X41055585Y-46880330D01*
X40730729Y-47366511D01*
X40616655Y-47940000D01*
X40730729Y-48513489D01*
X41055585Y-48999670D01*
X41166828Y-49074000D01*
X28133172Y-49074000D01*
X28244415Y-48999670D01*
X28569271Y-48513489D01*
X28683345Y-47940000D01*
X28569271Y-47366511D01*
X28244415Y-46880330D01*
X27929634Y-46670000D01*
X28244415Y-46459670D01*
X28402775Y-46222667D01*
X36783838Y-46222667D01*
X36925883Y-46566443D01*
X37188673Y-46829692D01*
X37532201Y-46972338D01*
X37904167Y-46972662D01*
X38247943Y-46830617D01*
X38511192Y-46567827D01*
X38653838Y-46224299D01*
X38654162Y-45852333D01*
X38512117Y-45508557D01*
X38249327Y-45245308D01*
X37905799Y-45102662D01*
X37533833Y-45102338D01*
X37190057Y-45244383D01*
X36926808Y-45507173D01*
X36784162Y-45850701D01*
X36783838Y-46222667D01*
X28402775Y-46222667D01*
X28444648Y-46160000D01*
X28641000Y-46160000D01*
X28931839Y-46102148D01*
X29178401Y-45937401D01*
X30393421Y-44722381D01*
X30558168Y-44475819D01*
X30616020Y-44184980D01*
X30616020Y-35930102D01*
X31104102Y-35442020D01*
X33011800Y-35442020D01*
X33302639Y-35384168D01*
X33549201Y-35219421D01*
X33700560Y-35068062D01*
X33700560Y-35377500D01*
G36*
X40730729Y-28193489D02*
X41055585Y-28679670D01*
X41370366Y-28890000D01*
X41055585Y-29100330D01*
X40730729Y-29586511D01*
X40616655Y-30160000D01*
X40730729Y-30733489D01*
X41055585Y-31219670D01*
X41370366Y-31430000D01*
X41055585Y-31640330D01*
X40730729Y-32126511D01*
X40616655Y-32700000D01*
X40730729Y-33273489D01*
X41055585Y-33759670D01*
X41370366Y-33970000D01*
X41055585Y-34180330D01*
X40730729Y-34666511D01*
X40616655Y-35240000D01*
X40730729Y-35813489D01*
X41055585Y-36299670D01*
X41370366Y-36510000D01*
X41055585Y-36720330D01*
X40730729Y-37206511D01*
X40616655Y-37780000D01*
X40730729Y-38353489D01*
X41055585Y-38839670D01*
X41370366Y-39050000D01*
X41055585Y-39260330D01*
X40730729Y-39746511D01*
X40616655Y-40320000D01*
X40730729Y-40893489D01*
X41055585Y-41379670D01*
X41370366Y-41590000D01*
X41055585Y-41800330D01*
X40855352Y-42100000D01*
X40191712Y-42100000D01*
X39177500Y-41085788D01*
X39177500Y-36892090D01*
X39119648Y-36601251D01*
X38970143Y-36377500D01*
X38954901Y-36354688D01*
X36854899Y-34254686D01*
X37010415Y-34099441D01*
X37111301Y-34200327D01*
X37344690Y-34297000D01*
X37560250Y-34297000D01*
X37719000Y-34138250D01*
X37719000Y-33389000D01*
X37973000Y-33389000D01*
X37973000Y-34138250D01*
X38131750Y-34297000D01*
X38347310Y-34297000D01*
X38580699Y-34200327D01*
X38639750Y-34141276D01*
X38698801Y-34200327D01*
X38932190Y-34297000D01*
X39147750Y-34297000D01*
X39306500Y-34138250D01*
X39306500Y-33389000D01*
X39560500Y-33389000D01*
X39560500Y-34138250D01*
X39719250Y-34297000D01*
X39934810Y-34297000D01*
X40168199Y-34200327D01*
X40346827Y-34021698D01*
X40443500Y-33788309D01*
X40443500Y-33547750D01*
X40284750Y-33389000D01*
X39560500Y-33389000D01*
X39306500Y-33389000D01*
X37973000Y-33389000D01*
X37719000Y-33389000D01*
X37699000Y-33389000D01*
X37699000Y-33135000D01*
X37719000Y-33135000D01*
X37719000Y-33115000D01*
X37973000Y-33115000D01*
X37973000Y-33135000D01*
X39306500Y-33135000D01*
X39306500Y-33115000D01*
X39560500Y-33115000D01*
X39560500Y-33135000D01*
X40284750Y-33135000D01*
X40443500Y-32976250D01*
X40443500Y-32735691D01*
X40346827Y-32502302D01*
X40345457Y-32500932D01*
X40404931Y-32413890D01*
X40455940Y-32162000D01*
X40455940Y-31362000D01*
X40411662Y-31126683D01*
X40272590Y-30910559D01*
X40130520Y-30813487D01*
X39970901Y-30574599D01*
X39741500Y-30345198D01*
X39741500Y-29989750D01*
X39582750Y-29831000D01*
X39053940Y-29831000D01*
X39053940Y-29577000D01*
X39582750Y-29577000D01*
X39741500Y-29418250D01*
X39741500Y-29301440D01*
X40006500Y-29301440D01*
X40241817Y-29257162D01*
X40457941Y-29118090D01*
X40602931Y-28905890D01*
X40653940Y-28654000D01*
X40653940Y-28254000D01*
X40624679Y-28098493D01*
X40653940Y-27954000D01*
X40653940Y-27807444D01*
X40730729Y-28193489D01*
X40730729Y-28193489D01*
G37*
X40730729Y-28193489D02*
X41055585Y-28679670D01*
X41370366Y-28890000D01*
X41055585Y-29100330D01*
X40730729Y-29586511D01*
X40616655Y-30160000D01*
X40730729Y-30733489D01*
X41055585Y-31219670D01*
X41370366Y-31430000D01*
X41055585Y-31640330D01*
X40730729Y-32126511D01*
X40616655Y-32700000D01*
X40730729Y-33273489D01*
X41055585Y-33759670D01*
X41370366Y-33970000D01*
X41055585Y-34180330D01*
X40730729Y-34666511D01*
X40616655Y-35240000D01*
X40730729Y-35813489D01*
X41055585Y-36299670D01*
X41370366Y-36510000D01*
X41055585Y-36720330D01*
X40730729Y-37206511D01*
X40616655Y-37780000D01*
X40730729Y-38353489D01*
X41055585Y-38839670D01*
X41370366Y-39050000D01*
X41055585Y-39260330D01*
X40730729Y-39746511D01*
X40616655Y-40320000D01*
X40730729Y-40893489D01*
X41055585Y-41379670D01*
X41370366Y-41590000D01*
X41055585Y-41800330D01*
X40855352Y-42100000D01*
X40191712Y-42100000D01*
X39177500Y-41085788D01*
X39177500Y-36892090D01*
X39119648Y-36601251D01*
X38970143Y-36377500D01*
X38954901Y-36354688D01*
X36854899Y-34254686D01*
X37010415Y-34099441D01*
X37111301Y-34200327D01*
X37344690Y-34297000D01*
X37560250Y-34297000D01*
X37719000Y-34138250D01*
X37719000Y-33389000D01*
X37973000Y-33389000D01*
X37973000Y-34138250D01*
X38131750Y-34297000D01*
X38347310Y-34297000D01*
X38580699Y-34200327D01*
X38639750Y-34141276D01*
X38698801Y-34200327D01*
X38932190Y-34297000D01*
X39147750Y-34297000D01*
X39306500Y-34138250D01*
X39306500Y-33389000D01*
X39560500Y-33389000D01*
X39560500Y-34138250D01*
X39719250Y-34297000D01*
X39934810Y-34297000D01*
X40168199Y-34200327D01*
X40346827Y-34021698D01*
X40443500Y-33788309D01*
X40443500Y-33547750D01*
X40284750Y-33389000D01*
X39560500Y-33389000D01*
X39306500Y-33389000D01*
X37973000Y-33389000D01*
X37719000Y-33389000D01*
X37699000Y-33389000D01*
X37699000Y-33135000D01*
X37719000Y-33135000D01*
X37719000Y-33115000D01*
X37973000Y-33115000D01*
X37973000Y-33135000D01*
X39306500Y-33135000D01*
X39306500Y-33115000D01*
X39560500Y-33115000D01*
X39560500Y-33135000D01*
X40284750Y-33135000D01*
X40443500Y-32976250D01*
X40443500Y-32735691D01*
X40346827Y-32502302D01*
X40345457Y-32500932D01*
X40404931Y-32413890D01*
X40455940Y-32162000D01*
X40455940Y-31362000D01*
X40411662Y-31126683D01*
X40272590Y-30910559D01*
X40130520Y-30813487D01*
X39970901Y-30574599D01*
X39741500Y-30345198D01*
X39741500Y-29989750D01*
X39582750Y-29831000D01*
X39053940Y-29831000D01*
X39053940Y-29577000D01*
X39582750Y-29577000D01*
X39741500Y-29418250D01*
X39741500Y-29301440D01*
X40006500Y-29301440D01*
X40241817Y-29257162D01*
X40457941Y-29118090D01*
X40602931Y-28905890D01*
X40653940Y-28654000D01*
X40653940Y-28254000D01*
X40624679Y-28098493D01*
X40653940Y-27954000D01*
X40653940Y-27807444D01*
X40730729Y-28193489D01*
G36*
X28759060Y-26554000D02*
X28788321Y-26709507D01*
X28759060Y-26854000D01*
X28759060Y-27254000D01*
X28788321Y-27409507D01*
X28759060Y-27554000D01*
X28759060Y-27954000D01*
X28803338Y-28189317D01*
X28942410Y-28405441D01*
X29154610Y-28550431D01*
X29406500Y-28601440D01*
X29475580Y-28601440D01*
X29569099Y-28741401D01*
X29712178Y-28884480D01*
X29721487Y-28907010D01*
X29671500Y-29027690D01*
X29671500Y-29418250D01*
X29830250Y-29577000D01*
X30359060Y-29577000D01*
X30359060Y-29831000D01*
X29830250Y-29831000D01*
X29671500Y-29989750D01*
X29671500Y-30380310D01*
X29768173Y-30613699D01*
X29946802Y-30792327D01*
X30180191Y-30889000D01*
X30247750Y-30889000D01*
X30379498Y-30757252D01*
X30379498Y-30889000D01*
X30446500Y-30889000D01*
X30446500Y-31270000D01*
X30504352Y-31560839D01*
X30596490Y-31698734D01*
X30596490Y-31900492D01*
X30654342Y-32191331D01*
X30803741Y-32414924D01*
X30769161Y-32498202D01*
X30768837Y-32870168D01*
X30831573Y-33022000D01*
X30416500Y-33022000D01*
X30125661Y-33079852D01*
X29879099Y-33244599D01*
X28524376Y-34599322D01*
X28244415Y-34180330D01*
X27929634Y-33970000D01*
X28244415Y-33759670D01*
X28569271Y-33273489D01*
X28683345Y-32700000D01*
X28569271Y-32126511D01*
X28244415Y-31640330D01*
X27929634Y-31430000D01*
X28244415Y-31219670D01*
X28569271Y-30733489D01*
X28683345Y-30160000D01*
X28569271Y-29586511D01*
X28244415Y-29100330D01*
X27929634Y-28890000D01*
X28244415Y-28679670D01*
X28569271Y-28193489D01*
X28683345Y-27620000D01*
X28569271Y-27046511D01*
X28475233Y-26905773D01*
X28494403Y-26809399D01*
X28759060Y-26544742D01*
X28759060Y-26554000D01*
X28759060Y-26554000D01*
G37*
X28759060Y-26554000D02*
X28788321Y-26709507D01*
X28759060Y-26854000D01*
X28759060Y-27254000D01*
X28788321Y-27409507D01*
X28759060Y-27554000D01*
X28759060Y-27954000D01*
X28803338Y-28189317D01*
X28942410Y-28405441D01*
X29154610Y-28550431D01*
X29406500Y-28601440D01*
X29475580Y-28601440D01*
X29569099Y-28741401D01*
X29712178Y-28884480D01*
X29721487Y-28907010D01*
X29671500Y-29027690D01*
X29671500Y-29418250D01*
X29830250Y-29577000D01*
X30359060Y-29577000D01*
X30359060Y-29831000D01*
X29830250Y-29831000D01*
X29671500Y-29989750D01*
X29671500Y-30380310D01*
X29768173Y-30613699D01*
X29946802Y-30792327D01*
X30180191Y-30889000D01*
X30247750Y-30889000D01*
X30379498Y-30757252D01*
X30379498Y-30889000D01*
X30446500Y-30889000D01*
X30446500Y-31270000D01*
X30504352Y-31560839D01*
X30596490Y-31698734D01*
X30596490Y-31900492D01*
X30654342Y-32191331D01*
X30803741Y-32414924D01*
X30769161Y-32498202D01*
X30768837Y-32870168D01*
X30831573Y-33022000D01*
X30416500Y-33022000D01*
X30125661Y-33079852D01*
X29879099Y-33244599D01*
X28524376Y-34599322D01*
X28244415Y-34180330D01*
X27929634Y-33970000D01*
X28244415Y-33759670D01*
X28569271Y-33273489D01*
X28683345Y-32700000D01*
X28569271Y-32126511D01*
X28244415Y-31640330D01*
X27929634Y-31430000D01*
X28244415Y-31219670D01*
X28569271Y-30733489D01*
X28683345Y-30160000D01*
X28569271Y-29586511D01*
X28244415Y-29100330D01*
X27929634Y-28890000D01*
X28244415Y-28679670D01*
X28569271Y-28193489D01*
X28683345Y-27620000D01*
X28569271Y-27046511D01*
X28475233Y-26905773D01*
X28494403Y-26809399D01*
X28759060Y-26544742D01*
X28759060Y-26554000D01*
G36*
X37301838Y-25139167D02*
X37443883Y-25482943D01*
X37706673Y-25746192D01*
X37959060Y-25850993D01*
X37959060Y-25854000D01*
X37988321Y-26009507D01*
X37959060Y-26154000D01*
X37959060Y-26554000D01*
X37988321Y-26709507D01*
X37959060Y-26854000D01*
X37959060Y-27254000D01*
X37971972Y-27322621D01*
X37647333Y-27322338D01*
X37303557Y-27464383D01*
X37040308Y-27727173D01*
X36897662Y-28070701D01*
X36897338Y-28442667D01*
X36923738Y-28506560D01*
X36606500Y-28506560D01*
X36450993Y-28535821D01*
X36306500Y-28506560D01*
X35906500Y-28506560D01*
X35750993Y-28535821D01*
X35606500Y-28506560D01*
X35206500Y-28506560D01*
X35050993Y-28535821D01*
X34906500Y-28506560D01*
X34506500Y-28506560D01*
X34350993Y-28535821D01*
X34209129Y-28507092D01*
X34209162Y-28468831D01*
X34067117Y-28125055D01*
X33804327Y-27861806D01*
X33460799Y-27719160D01*
X33088833Y-27718836D01*
X32828359Y-27826462D01*
X32770738Y-27815000D01*
X32191802Y-27815000D01*
X32129000Y-27752198D01*
X32129000Y-27531498D01*
X32071148Y-27240659D01*
X31986517Y-27114000D01*
X35368000Y-27114000D01*
X35658839Y-27056148D01*
X35905401Y-26891401D01*
X36668901Y-26127901D01*
X36833648Y-25881339D01*
X36891500Y-25590500D01*
X36891500Y-25136963D01*
X36923692Y-25104827D01*
X36992998Y-24937921D01*
X37269167Y-24938162D01*
X37302025Y-24924585D01*
X37301838Y-25139167D01*
X37301838Y-25139167D01*
G37*
X37301838Y-25139167D02*
X37443883Y-25482943D01*
X37706673Y-25746192D01*
X37959060Y-25850993D01*
X37959060Y-25854000D01*
X37988321Y-26009507D01*
X37959060Y-26154000D01*
X37959060Y-26554000D01*
X37988321Y-26709507D01*
X37959060Y-26854000D01*
X37959060Y-27254000D01*
X37971972Y-27322621D01*
X37647333Y-27322338D01*
X37303557Y-27464383D01*
X37040308Y-27727173D01*
X36897662Y-28070701D01*
X36897338Y-28442667D01*
X36923738Y-28506560D01*
X36606500Y-28506560D01*
X36450993Y-28535821D01*
X36306500Y-28506560D01*
X35906500Y-28506560D01*
X35750993Y-28535821D01*
X35606500Y-28506560D01*
X35206500Y-28506560D01*
X35050993Y-28535821D01*
X34906500Y-28506560D01*
X34506500Y-28506560D01*
X34350993Y-28535821D01*
X34209129Y-28507092D01*
X34209162Y-28468831D01*
X34067117Y-28125055D01*
X33804327Y-27861806D01*
X33460799Y-27719160D01*
X33088833Y-27718836D01*
X32828359Y-27826462D01*
X32770738Y-27815000D01*
X32191802Y-27815000D01*
X32129000Y-27752198D01*
X32129000Y-27531498D01*
X32071148Y-27240659D01*
X31986517Y-27114000D01*
X35368000Y-27114000D01*
X35658839Y-27056148D01*
X35905401Y-26891401D01*
X36668901Y-26127901D01*
X36833648Y-25881339D01*
X36891500Y-25590500D01*
X36891500Y-25136963D01*
X36923692Y-25104827D01*
X36992998Y-24937921D01*
X37269167Y-24938162D01*
X37302025Y-24924585D01*
X37301838Y-25139167D01*
G36*
X28771500Y-17927690D02*
X28771500Y-18168250D01*
X28930250Y-18327000D01*
X29979500Y-18327000D01*
X29979500Y-18307000D01*
X30233500Y-18307000D01*
X30233500Y-18327000D01*
X31282750Y-18327000D01*
X31441500Y-18168250D01*
X31441500Y-17927690D01*
X31432930Y-17907000D01*
X33147000Y-17907000D01*
X33147000Y-20955000D01*
X33157006Y-21004410D01*
X33185447Y-21046035D01*
X33227841Y-21073315D01*
X33274000Y-21082000D01*
X36681280Y-21082000D01*
X36854610Y-21200431D01*
X37106500Y-21251440D01*
X37484258Y-21251440D01*
X37334198Y-21401500D01*
X36509682Y-21401500D01*
X36435290Y-21416298D01*
X36419470Y-21400450D01*
X36075942Y-21257804D01*
X35703976Y-21257480D01*
X35360200Y-21399525D01*
X35096951Y-21662315D01*
X34954305Y-22005843D01*
X34953981Y-22377809D01*
X35013275Y-22521312D01*
X34896009Y-22803718D01*
X34895685Y-23175684D01*
X35037730Y-23519460D01*
X35300520Y-23782709D01*
X35392516Y-23820909D01*
X35442290Y-23941371D01*
X35339308Y-24044173D01*
X35196662Y-24387701D01*
X35196338Y-24759667D01*
X35338383Y-25103443D01*
X35371500Y-25136618D01*
X35371500Y-25275698D01*
X35053198Y-25594000D01*
X34052480Y-25594000D01*
X34081838Y-25523299D01*
X34082162Y-25151333D01*
X33940117Y-24807557D01*
X33677327Y-24544308D01*
X33490098Y-24466563D01*
X33368617Y-24172557D01*
X33105827Y-23909308D01*
X32762299Y-23766662D01*
X32686041Y-23766596D01*
X32670117Y-23728057D01*
X32407327Y-23464808D01*
X32091571Y-23333694D01*
X32044617Y-23220057D01*
X31781827Y-22956808D01*
X31453940Y-22820657D01*
X31453940Y-22654000D01*
X31424679Y-22498493D01*
X31453940Y-22354000D01*
X31453940Y-21954000D01*
X31424679Y-21798493D01*
X31453940Y-21654000D01*
X31453940Y-21254000D01*
X31409662Y-21018683D01*
X31270590Y-20802559D01*
X31058390Y-20657569D01*
X30806500Y-20606560D01*
X29406500Y-20606560D01*
X29171183Y-20650838D01*
X29104107Y-20694000D01*
X28651000Y-20694000D01*
X28651000Y-20285750D01*
X28492250Y-20127000D01*
X27127000Y-20127000D01*
X27127000Y-20147000D01*
X26873000Y-20147000D01*
X26873000Y-20127000D01*
X26853000Y-20127000D01*
X26853000Y-19873000D01*
X26873000Y-19873000D01*
X26873000Y-18660150D01*
X27127000Y-18660150D01*
X27127000Y-19873000D01*
X28492250Y-19873000D01*
X28651000Y-19714250D01*
X28651000Y-19010090D01*
X28554327Y-18776701D01*
X28517376Y-18739750D01*
X28771500Y-18739750D01*
X28771500Y-18980310D01*
X28868173Y-19213699D01*
X29046802Y-19392327D01*
X29280191Y-19489000D01*
X29820750Y-19489000D01*
X29979500Y-19330250D01*
X29979500Y-18581000D01*
X30233500Y-18581000D01*
X30233500Y-19330250D01*
X30392250Y-19489000D01*
X30932809Y-19489000D01*
X31166198Y-19392327D01*
X31344827Y-19213699D01*
X31441500Y-18980310D01*
X31441500Y-18739750D01*
X31282750Y-18581000D01*
X30233500Y-18581000D01*
X29979500Y-18581000D01*
X28930250Y-18581000D01*
X28771500Y-18739750D01*
X28517376Y-18739750D01*
X28375698Y-18598073D01*
X28142309Y-18501400D01*
X27285750Y-18501400D01*
X27127000Y-18660150D01*
X26873000Y-18660150D01*
X26714250Y-18501400D01*
X25983000Y-18501400D01*
X25983000Y-17907000D01*
X28780070Y-17907000D01*
X28771500Y-17927690D01*
X28771500Y-17927690D01*
G37*
X28771500Y-17927690D02*
X28771500Y-18168250D01*
X28930250Y-18327000D01*
X29979500Y-18327000D01*
X29979500Y-18307000D01*
X30233500Y-18307000D01*
X30233500Y-18327000D01*
X31282750Y-18327000D01*
X31441500Y-18168250D01*
X31441500Y-17927690D01*
X31432930Y-17907000D01*
X33147000Y-17907000D01*
X33147000Y-20955000D01*
X33157006Y-21004410D01*
X33185447Y-21046035D01*
X33227841Y-21073315D01*
X33274000Y-21082000D01*
X36681280Y-21082000D01*
X36854610Y-21200431D01*
X37106500Y-21251440D01*
X37484258Y-21251440D01*
X37334198Y-21401500D01*
X36509682Y-21401500D01*
X36435290Y-21416298D01*
X36419470Y-21400450D01*
X36075942Y-21257804D01*
X35703976Y-21257480D01*
X35360200Y-21399525D01*
X35096951Y-21662315D01*
X34954305Y-22005843D01*
X34953981Y-22377809D01*
X35013275Y-22521312D01*
X34896009Y-22803718D01*
X34895685Y-23175684D01*
X35037730Y-23519460D01*
X35300520Y-23782709D01*
X35392516Y-23820909D01*
X35442290Y-23941371D01*
X35339308Y-24044173D01*
X35196662Y-24387701D01*
X35196338Y-24759667D01*
X35338383Y-25103443D01*
X35371500Y-25136618D01*
X35371500Y-25275698D01*
X35053198Y-25594000D01*
X34052480Y-25594000D01*
X34081838Y-25523299D01*
X34082162Y-25151333D01*
X33940117Y-24807557D01*
X33677327Y-24544308D01*
X33490098Y-24466563D01*
X33368617Y-24172557D01*
X33105827Y-23909308D01*
X32762299Y-23766662D01*
X32686041Y-23766596D01*
X32670117Y-23728057D01*
X32407327Y-23464808D01*
X32091571Y-23333694D01*
X32044617Y-23220057D01*
X31781827Y-22956808D01*
X31453940Y-22820657D01*
X31453940Y-22654000D01*
X31424679Y-22498493D01*
X31453940Y-22354000D01*
X31453940Y-21954000D01*
X31424679Y-21798493D01*
X31453940Y-21654000D01*
X31453940Y-21254000D01*
X31409662Y-21018683D01*
X31270590Y-20802559D01*
X31058390Y-20657569D01*
X30806500Y-20606560D01*
X29406500Y-20606560D01*
X29171183Y-20650838D01*
X29104107Y-20694000D01*
X28651000Y-20694000D01*
X28651000Y-20285750D01*
X28492250Y-20127000D01*
X27127000Y-20127000D01*
X27127000Y-20147000D01*
X26873000Y-20147000D01*
X26873000Y-20127000D01*
X26853000Y-20127000D01*
X26853000Y-19873000D01*
X26873000Y-19873000D01*
X26873000Y-18660150D01*
X27127000Y-18660150D01*
X27127000Y-19873000D01*
X28492250Y-19873000D01*
X28651000Y-19714250D01*
X28651000Y-19010090D01*
X28554327Y-18776701D01*
X28517376Y-18739750D01*
X28771500Y-18739750D01*
X28771500Y-18980310D01*
X28868173Y-19213699D01*
X29046802Y-19392327D01*
X29280191Y-19489000D01*
X29820750Y-19489000D01*
X29979500Y-19330250D01*
X29979500Y-18581000D01*
X30233500Y-18581000D01*
X30233500Y-19330250D01*
X30392250Y-19489000D01*
X30932809Y-19489000D01*
X31166198Y-19392327D01*
X31344827Y-19213699D01*
X31441500Y-18980310D01*
X31441500Y-18739750D01*
X31282750Y-18581000D01*
X30233500Y-18581000D01*
X29979500Y-18581000D01*
X28930250Y-18581000D01*
X28771500Y-18739750D01*
X28517376Y-18739750D01*
X28375698Y-18598073D01*
X28142309Y-18501400D01*
X27285750Y-18501400D01*
X27127000Y-18660150D01*
X26873000Y-18660150D01*
X26714250Y-18501400D01*
X25983000Y-18501400D01*
X25983000Y-17907000D01*
X28780070Y-17907000D01*
X28771500Y-17927690D01*
G36*
X43359000Y-18501400D02*
X42585750Y-18501400D01*
X42427000Y-18660150D01*
X42427000Y-19873000D01*
X42447000Y-19873000D01*
X42447000Y-20127000D01*
X42427000Y-20127000D01*
X42427000Y-20147000D01*
X42173000Y-20147000D01*
X42173000Y-20127000D01*
X42153000Y-20127000D01*
X42153000Y-19873000D01*
X42173000Y-19873000D01*
X42173000Y-18660150D01*
X42014250Y-18501400D01*
X41157691Y-18501400D01*
X40924302Y-18598073D01*
X40745673Y-18776701D01*
X40649000Y-19010090D01*
X40649000Y-19127746D01*
X40627581Y-19013914D01*
X40641500Y-18980310D01*
X40641500Y-18739750D01*
X40482750Y-18581000D01*
X40292682Y-18581000D01*
X40258390Y-18557569D01*
X40006500Y-18506560D01*
X39159500Y-18506560D01*
X39159500Y-18327000D01*
X39179500Y-18327000D01*
X39179500Y-18307000D01*
X39433500Y-18307000D01*
X39433500Y-18327000D01*
X40482750Y-18327000D01*
X40641500Y-18168250D01*
X40641500Y-17927690D01*
X40632930Y-17907000D01*
X43359000Y-17907000D01*
X43359000Y-18501400D01*
X43359000Y-18501400D01*
G37*
X43359000Y-18501400D02*
X42585750Y-18501400D01*
X42427000Y-18660150D01*
X42427000Y-19873000D01*
X42447000Y-19873000D01*
X42447000Y-20127000D01*
X42427000Y-20127000D01*
X42427000Y-20147000D01*
X42173000Y-20147000D01*
X42173000Y-20127000D01*
X42153000Y-20127000D01*
X42153000Y-19873000D01*
X42173000Y-19873000D01*
X42173000Y-18660150D01*
X42014250Y-18501400D01*
X41157691Y-18501400D01*
X40924302Y-18598073D01*
X40745673Y-18776701D01*
X40649000Y-19010090D01*
X40649000Y-19127746D01*
X40627581Y-19013914D01*
X40641500Y-18980310D01*
X40641500Y-18739750D01*
X40482750Y-18581000D01*
X40292682Y-18581000D01*
X40258390Y-18557569D01*
X40006500Y-18506560D01*
X39159500Y-18506560D01*
X39159500Y-18327000D01*
X39179500Y-18327000D01*
X39179500Y-18307000D01*
X39433500Y-18307000D01*
X39433500Y-18327000D01*
X40482750Y-18327000D01*
X40641500Y-18168250D01*
X40641500Y-17927690D01*
X40632930Y-17907000D01*
X43359000Y-17907000D01*
X43359000Y-18501400D01*
M02*
