G04 #@! TF.FileFunction,Copper,L4,Bot,Signal*
%FSLAX46Y46*%
G04 Gerber Fmt 4.6, Leading zero omitted, Abs format (unit mm)*
G04 Created by KiCad (PCBNEW 4.0.4-stable) date 06/20/17 22:04:30*
%MOMM*%
%LPD*%
G01*
G04 APERTURE LIST*
%ADD10C,0.100000*%
%ADD11R,2.032000X1.727200*%
%ADD12O,2.032000X1.727200*%
%ADD13R,0.750000X0.800000*%
%ADD14R,0.500000X0.900000*%
%ADD15R,0.650000X1.060000*%
%ADD16R,1.100000X1.900000*%
%ADD17C,0.600000*%
%ADD18C,0.350000*%
%ADD19C,0.250000*%
%ADD20C,0.254000*%
G04 APERTURE END LIST*
D10*
D11*
X27000000Y-20000000D03*
D12*
X27000000Y-22540000D03*
X27000000Y-25080000D03*
X27000000Y-27620000D03*
X27000000Y-30160000D03*
X27000000Y-32700000D03*
X27000000Y-35240000D03*
X27000000Y-37780000D03*
X27000000Y-40320000D03*
X27000000Y-42860000D03*
X27000000Y-45400000D03*
X27000000Y-47940000D03*
D11*
X42300000Y-20000000D03*
D12*
X42300000Y-22540000D03*
X42300000Y-25080000D03*
X42300000Y-27620000D03*
X42300000Y-30160000D03*
X42300000Y-32700000D03*
X42300000Y-35240000D03*
X42300000Y-37780000D03*
X42300000Y-40320000D03*
X42300000Y-42860000D03*
X42300000Y-45400000D03*
X42300000Y-47940000D03*
D13*
X30670500Y-48121000D03*
X30670500Y-46621000D03*
X36639500Y-45771500D03*
X36639500Y-44271500D03*
X36830000Y-32436500D03*
X36830000Y-30936500D03*
X37020500Y-25602500D03*
X37020500Y-27102500D03*
X31305500Y-38405500D03*
X31305500Y-36905500D03*
X33845500Y-38278500D03*
X33845500Y-36778500D03*
X33845500Y-27380500D03*
X33845500Y-28880500D03*
X35496500Y-25602500D03*
X35496500Y-27102500D03*
D14*
X35889500Y-29400500D03*
X37389500Y-29400500D03*
D15*
X34605000Y-47963000D03*
X33655000Y-47963000D03*
X32705000Y-47963000D03*
X32705000Y-45763000D03*
X34605000Y-45763000D03*
D16*
X33845500Y-33972500D03*
X31345500Y-33972500D03*
D17*
X30506500Y-32295000D03*
X40555480Y-32131000D03*
X37531500Y-34226500D03*
X35814000Y-28448000D03*
X35623500Y-43688000D03*
X33439500Y-48958500D03*
X29652500Y-46228000D03*
X32956500Y-38735000D03*
X32131000Y-38989000D03*
X36512500Y-28003500D03*
X30543500Y-28448000D03*
X36323020Y-33464500D03*
X37719000Y-46037500D03*
X33782000Y-41211500D03*
X37832500Y-28257500D03*
X36131500Y-24574500D03*
X31703999Y-32685001D03*
X32004000Y-31623000D03*
X33274000Y-28653998D03*
X35830847Y-22990517D03*
X35889143Y-22192642D03*
X36322000Y-23622000D03*
X37084000Y-24003000D03*
X37909500Y-24179000D03*
X38237000Y-24954000D03*
X31251500Y-23749000D03*
X31877000Y-24257000D03*
X32575500Y-24701500D03*
X33147000Y-25336500D03*
D18*
X32705000Y-47963000D02*
X32705000Y-47083000D01*
X32705000Y-47083000D02*
X32925000Y-46863000D01*
X32925000Y-46863000D02*
X34385000Y-46863000D01*
X34385000Y-46863000D02*
X34605000Y-47083000D01*
X34605000Y-47083000D02*
X34605000Y-47963000D01*
X30670500Y-48121000D02*
X32547000Y-48121000D01*
X32547000Y-48121000D02*
X32705000Y-47963000D01*
X27000000Y-47940000D02*
X30489500Y-47940000D01*
X30489500Y-47940000D02*
X30670500Y-48121000D01*
D19*
X35814000Y-28625000D02*
X35814000Y-28448000D01*
X35889500Y-29400500D02*
X35889500Y-28700500D01*
X35889500Y-28700500D02*
X35814000Y-28625000D01*
X35889500Y-29400500D02*
X35889500Y-29996000D01*
X35889500Y-29996000D02*
X36830000Y-30936500D01*
X35889500Y-29400500D02*
X35889500Y-29098000D01*
X35687000Y-43944000D02*
X35687000Y-43751500D01*
X35687000Y-43751500D02*
X35623500Y-43688000D01*
X36639500Y-44271500D02*
X36014500Y-44271500D01*
X36014500Y-44271500D02*
X35687000Y-43944000D01*
X33655000Y-47963000D02*
X33655000Y-48743000D01*
X33655000Y-48743000D02*
X33439500Y-48958500D01*
X30670500Y-46621000D02*
X30045500Y-46621000D01*
X30045500Y-46621000D02*
X29652500Y-46228000D01*
X32956500Y-38542500D02*
X32956500Y-38735000D01*
X33845500Y-38278500D02*
X33220500Y-38278500D01*
X33220500Y-38278500D02*
X32956500Y-38542500D01*
X32131000Y-38606000D02*
X32131000Y-38989000D01*
X31305500Y-38405500D02*
X31930500Y-38405500D01*
X31930500Y-38405500D02*
X32131000Y-38606000D01*
X36769500Y-28003500D02*
X36512500Y-28003500D01*
X37020500Y-27102500D02*
X37020500Y-27752500D01*
X37020500Y-27752500D02*
X36769500Y-28003500D01*
X36452000Y-33464500D02*
X36323020Y-33464500D01*
X36830000Y-32436500D02*
X36830000Y-33086500D01*
X36830000Y-33086500D02*
X36452000Y-33464500D01*
X37530500Y-46037500D02*
X37719000Y-46037500D01*
X36639500Y-45771500D02*
X37264500Y-45771500D01*
X37264500Y-45771500D02*
X37530500Y-46037500D01*
X34605000Y-45763000D02*
X36631000Y-45763000D01*
X36631000Y-45763000D02*
X36639500Y-45771500D01*
X37389500Y-29400500D02*
X37389500Y-28700500D01*
X37389500Y-28700500D02*
X37832500Y-28257500D01*
X35874500Y-24574500D02*
X36131500Y-24574500D01*
X35496500Y-25602500D02*
X35496500Y-24952500D01*
X35496500Y-24952500D02*
X35874500Y-24574500D01*
X37020500Y-25602500D02*
X35496500Y-25602500D01*
X31345500Y-33972500D02*
X31345500Y-33043500D01*
X31345500Y-33043500D02*
X31703999Y-32685001D01*
X31345500Y-33972500D02*
X31345500Y-36865500D01*
X31345500Y-36865500D02*
X31305500Y-36905500D01*
X32004000Y-31623000D02*
X33845500Y-33464500D01*
X33845500Y-33464500D02*
X33845500Y-33972500D01*
X33337500Y-33464500D02*
X33845500Y-33972500D01*
X33845500Y-33972500D02*
X33845500Y-36778500D01*
X35496500Y-27102500D02*
X34123500Y-27102500D01*
X34123500Y-27102500D02*
X33845500Y-27380500D01*
X35218500Y-27380500D02*
X35496500Y-27102500D01*
X35445000Y-27051000D02*
X35496500Y-27102500D01*
X35427491Y-27051000D02*
X35478991Y-27102500D01*
X33389000Y-28880500D02*
X33274000Y-28765500D01*
X33274000Y-28765500D02*
X33274000Y-28653998D01*
X33845500Y-28880500D02*
X33389000Y-28880500D01*
X40253490Y-26727990D02*
X40253490Y-23245100D01*
X36653609Y-22653981D02*
X39662371Y-22653981D01*
X39662371Y-22653981D02*
X40253490Y-23245100D01*
X35830847Y-22990517D02*
X36317073Y-22990517D01*
X36317073Y-22990517D02*
X36653609Y-22653981D01*
X40830500Y-27305000D02*
X40830500Y-28842900D01*
X40830500Y-28842900D02*
X42147600Y-30160000D01*
X42147600Y-30160000D02*
X42300000Y-30160000D01*
X40253490Y-26727990D02*
X40830500Y-27305000D01*
X35889143Y-22192642D02*
X39837442Y-22192642D01*
X39837442Y-22192642D02*
X40703500Y-23058700D01*
X40703500Y-23058700D02*
X40703500Y-26175900D01*
X40703500Y-26175900D02*
X42147600Y-27620000D01*
X42147600Y-27620000D02*
X42300000Y-27620000D01*
X39803480Y-23431500D02*
X39803480Y-26914390D01*
X37346601Y-23103989D02*
X39475969Y-23103989D01*
X39475969Y-23103989D02*
X39803480Y-23431500D01*
X36322000Y-23622000D02*
X36840010Y-23103990D01*
X36840010Y-23103990D02*
X37346601Y-23103989D01*
X40380490Y-27491400D02*
X40380490Y-30932890D01*
X40380490Y-30932890D02*
X42147600Y-32700000D01*
X42147600Y-32700000D02*
X42300000Y-32700000D01*
X39803480Y-26914390D02*
X40380490Y-27491400D01*
X37084000Y-24003000D02*
X37533001Y-23553999D01*
X37533001Y-23553999D02*
X39174999Y-23553999D01*
X39174999Y-23553999D02*
X39353470Y-23732470D01*
X39930480Y-33022880D02*
X42147600Y-35240000D01*
X39353470Y-23732470D02*
X39353471Y-27100791D01*
X39930480Y-27677800D02*
X39930480Y-33022880D01*
X39353471Y-27100791D02*
X39930480Y-27677800D01*
X42147600Y-35240000D02*
X42300000Y-35240000D01*
X41021000Y-36449000D02*
X41021000Y-36653400D01*
X41021000Y-36653400D02*
X42147600Y-37780000D01*
X42147600Y-37780000D02*
X42300000Y-37780000D01*
X39480470Y-34908470D02*
X41021000Y-36449000D01*
X39480470Y-27864200D02*
X39480470Y-34908470D01*
X38903462Y-27287192D02*
X39480470Y-27864200D01*
X38862000Y-24447500D02*
X38862000Y-27245728D01*
X38862000Y-27245728D02*
X38903462Y-27287192D01*
X38593500Y-24179000D02*
X38862000Y-24447500D01*
X37909500Y-24179000D02*
X38593500Y-24179000D01*
X42300000Y-40320000D02*
X42147600Y-40320000D01*
X42147600Y-40320000D02*
X40195500Y-38367900D01*
X40195500Y-38367900D02*
X40195500Y-36322000D01*
X40195500Y-36322000D02*
X39030460Y-35156960D01*
X39030460Y-28050600D02*
X38237000Y-27257140D01*
X39030460Y-35156960D02*
X39030460Y-28050600D01*
X38237000Y-27257140D02*
X38237000Y-24954000D01*
X28511500Y-24384000D02*
X28511500Y-28800900D01*
X28511500Y-28800900D02*
X27152400Y-30160000D01*
X27152400Y-30160000D02*
X27000000Y-30160000D01*
X29083000Y-23812500D02*
X28511500Y-24384000D01*
X30763736Y-23812500D02*
X29083000Y-23812500D01*
X31251500Y-23749000D02*
X30827236Y-23749000D01*
X30827236Y-23749000D02*
X30763736Y-23812500D01*
X28961510Y-24724488D02*
X28961510Y-30890890D01*
X28961510Y-30890890D02*
X27152400Y-32700000D01*
X27152400Y-32700000D02*
X27000000Y-32700000D01*
X29128999Y-24556999D02*
X28961510Y-24724488D01*
X31877000Y-24257000D02*
X31577001Y-24556999D01*
X31577001Y-24556999D02*
X29128999Y-24556999D01*
X29411520Y-25261980D02*
X29411520Y-32980880D01*
X29411520Y-32980880D02*
X27152400Y-35240000D01*
X27152400Y-35240000D02*
X27000000Y-35240000D01*
X32258000Y-25019000D02*
X29654500Y-25019000D01*
X29654500Y-25019000D02*
X29411520Y-25261980D01*
X32575500Y-24701500D02*
X32258000Y-25019000D01*
X29861530Y-25891470D02*
X29861530Y-35070870D01*
X29861530Y-35070870D02*
X27152400Y-37780000D01*
X27152400Y-37780000D02*
X27000000Y-37780000D01*
X32829500Y-25654000D02*
X30099000Y-25654000D01*
X30099000Y-25654000D02*
X29861530Y-25891470D01*
X33147000Y-25336500D02*
X32829500Y-25654000D01*
D20*
G36*
X43359000Y-18501400D02*
X42585750Y-18501400D01*
X42427000Y-18660150D01*
X42427000Y-19873000D01*
X42447000Y-19873000D01*
X42447000Y-20127000D01*
X42427000Y-20127000D01*
X42427000Y-20147000D01*
X42173000Y-20147000D01*
X42173000Y-20127000D01*
X40807750Y-20127000D01*
X40649000Y-20285750D01*
X40649000Y-20989910D01*
X40745673Y-21223299D01*
X40924302Y-21401927D01*
X41077780Y-21465500D01*
X41055585Y-21480330D01*
X40730729Y-21966511D01*
X40723327Y-22003725D01*
X40374843Y-21655241D01*
X40128281Y-21490494D01*
X39837442Y-21432642D01*
X36451606Y-21432642D01*
X36419470Y-21400450D01*
X36075942Y-21257804D01*
X35703976Y-21257480D01*
X35360200Y-21399525D01*
X35096951Y-21662315D01*
X34954305Y-22005843D01*
X34953981Y-22377809D01*
X35013275Y-22521312D01*
X34896009Y-22803718D01*
X34895685Y-23175684D01*
X35037730Y-23519460D01*
X35300520Y-23782709D01*
X35392516Y-23820909D01*
X35442290Y-23941371D01*
X35365211Y-24018315D01*
X35337099Y-24037099D01*
X34959099Y-24415099D01*
X34798140Y-24655992D01*
X34670059Y-24738410D01*
X34525069Y-24950610D01*
X34474060Y-25202500D01*
X34474060Y-26002500D01*
X34518338Y-26237817D01*
X34585700Y-26342500D01*
X34267116Y-26342500D01*
X34220500Y-26333060D01*
X33470500Y-26333060D01*
X33235183Y-26377338D01*
X33019059Y-26516410D01*
X32874069Y-26728610D01*
X32823060Y-26980500D01*
X32823060Y-27780500D01*
X32831467Y-27825177D01*
X32745057Y-27860881D01*
X32481808Y-28123671D01*
X32339162Y-28467199D01*
X32338838Y-28839165D01*
X32480883Y-29182941D01*
X32743673Y-29446190D01*
X32863608Y-29495991D01*
X32867338Y-29515817D01*
X33006410Y-29731941D01*
X33218610Y-29876931D01*
X33470500Y-29927940D01*
X34220500Y-29927940D01*
X34455817Y-29883662D01*
X34671941Y-29744590D01*
X34816931Y-29532390D01*
X34867940Y-29280500D01*
X34867940Y-28824190D01*
X35004500Y-28824190D01*
X35004500Y-29114750D01*
X35163250Y-29273500D01*
X35764500Y-29273500D01*
X35764500Y-28474250D01*
X35605750Y-28315500D01*
X35513191Y-28315500D01*
X35279802Y-28412173D01*
X35101173Y-28590801D01*
X35004500Y-28824190D01*
X34867940Y-28824190D01*
X34867940Y-28480500D01*
X34823662Y-28245183D01*
X34749880Y-28130522D01*
X34802702Y-28053215D01*
X34869610Y-28098931D01*
X35121500Y-28149940D01*
X35871500Y-28149940D01*
X36106817Y-28105662D01*
X36255172Y-28010198D01*
X36285801Y-28040827D01*
X36519190Y-28137500D01*
X36734750Y-28137500D01*
X36893498Y-27978752D01*
X36893498Y-28121700D01*
X36852099Y-28163099D01*
X36687352Y-28409661D01*
X36665526Y-28519389D01*
X36641531Y-28554506D01*
X36499198Y-28412173D01*
X36265809Y-28315500D01*
X36173250Y-28315500D01*
X36014500Y-28474250D01*
X36014500Y-29273500D01*
X36036500Y-29273500D01*
X36036500Y-29527500D01*
X36014500Y-29527500D01*
X36014500Y-29547500D01*
X35764500Y-29547500D01*
X35764500Y-29527500D01*
X35163250Y-29527500D01*
X35004500Y-29686250D01*
X35004500Y-29976810D01*
X35101173Y-30210199D01*
X35279802Y-30388827D01*
X35513191Y-30485500D01*
X35605750Y-30485500D01*
X35762498Y-30328752D01*
X35762498Y-30485500D01*
X35820000Y-30485500D01*
X35820000Y-30650750D01*
X35978750Y-30809500D01*
X36703000Y-30809500D01*
X36703000Y-30789500D01*
X36957000Y-30789500D01*
X36957000Y-30809500D01*
X37681250Y-30809500D01*
X37840000Y-30650750D01*
X37840000Y-30460213D01*
X37874817Y-30453662D01*
X38090941Y-30314590D01*
X38235931Y-30102390D01*
X38270460Y-29931881D01*
X38270460Y-35156960D01*
X38328312Y-35447799D01*
X38493059Y-35694361D01*
X39435500Y-36636802D01*
X39435500Y-38367900D01*
X39493352Y-38658739D01*
X39658099Y-38905301D01*
X40692334Y-39939536D01*
X40616655Y-40320000D01*
X40730729Y-40893489D01*
X41055585Y-41379670D01*
X41370366Y-41590000D01*
X41055585Y-41800330D01*
X40730729Y-42286511D01*
X40616655Y-42860000D01*
X40730729Y-43433489D01*
X41055585Y-43919670D01*
X41370366Y-44130000D01*
X41055585Y-44340330D01*
X40730729Y-44826511D01*
X40616655Y-45400000D01*
X40730729Y-45973489D01*
X41055585Y-46459670D01*
X41370366Y-46670000D01*
X41055585Y-46880330D01*
X40730729Y-47366511D01*
X40616655Y-47940000D01*
X40730729Y-48513489D01*
X41055585Y-48999670D01*
X41166828Y-49074000D01*
X35199758Y-49074000D01*
X35381441Y-48957090D01*
X35526431Y-48744890D01*
X35577440Y-48493000D01*
X35577440Y-47433000D01*
X35533162Y-47197683D01*
X35395150Y-46983206D01*
X35353720Y-46774928D01*
X35381441Y-46757090D01*
X35526431Y-46544890D01*
X35530864Y-46523000D01*
X35736100Y-46523000D01*
X35800410Y-46622941D01*
X36012610Y-46767931D01*
X36264500Y-46818940D01*
X37014500Y-46818940D01*
X37152095Y-46793050D01*
X37188673Y-46829692D01*
X37532201Y-46972338D01*
X37904167Y-46972662D01*
X38247943Y-46830617D01*
X38511192Y-46567827D01*
X38653838Y-46224299D01*
X38654162Y-45852333D01*
X38512117Y-45508557D01*
X38249327Y-45245308D01*
X37905799Y-45102662D01*
X37604799Y-45102400D01*
X37589229Y-45091996D01*
X37551171Y-45032854D01*
X37552827Y-45031198D01*
X37649500Y-44797809D01*
X37649500Y-44557250D01*
X37490750Y-44398500D01*
X36766500Y-44398500D01*
X36766500Y-44418500D01*
X36512500Y-44418500D01*
X36512500Y-44398500D01*
X35788250Y-44398500D01*
X35629500Y-44557250D01*
X35629500Y-44797809D01*
X35714493Y-45003000D01*
X35534162Y-45003000D01*
X35533162Y-44997683D01*
X35394090Y-44781559D01*
X35181890Y-44636569D01*
X34930000Y-44585560D01*
X34280000Y-44585560D01*
X34044683Y-44629838D01*
X33828559Y-44768910D01*
X33683569Y-44981110D01*
X33655824Y-45118120D01*
X33633162Y-44997683D01*
X33494090Y-44781559D01*
X33281890Y-44636569D01*
X33030000Y-44585560D01*
X32380000Y-44585560D01*
X32144683Y-44629838D01*
X31928559Y-44768910D01*
X31783569Y-44981110D01*
X31732560Y-45233000D01*
X31732560Y-46293000D01*
X31776838Y-46528317D01*
X31915910Y-46744441D01*
X31956999Y-46772516D01*
X31956658Y-46773026D01*
X31913232Y-46991342D01*
X31783569Y-47181110D01*
X31757266Y-47311000D01*
X31612697Y-47311000D01*
X31680500Y-47147309D01*
X31680500Y-46906750D01*
X31521750Y-46748000D01*
X30797500Y-46748000D01*
X30797500Y-46768000D01*
X30543500Y-46768000D01*
X30543500Y-46748000D01*
X29819250Y-46748000D01*
X29660500Y-46906750D01*
X29660500Y-47130000D01*
X28411239Y-47130000D01*
X28244415Y-46880330D01*
X27929634Y-46670000D01*
X28244415Y-46459670D01*
X28488286Y-46094691D01*
X29660500Y-46094691D01*
X29660500Y-46335250D01*
X29819250Y-46494000D01*
X30543500Y-46494000D01*
X30543500Y-45744750D01*
X30797500Y-45744750D01*
X30797500Y-46494000D01*
X31521750Y-46494000D01*
X31680500Y-46335250D01*
X31680500Y-46094691D01*
X31583827Y-45861302D01*
X31405199Y-45682673D01*
X31171810Y-45586000D01*
X30956250Y-45586000D01*
X30797500Y-45744750D01*
X30543500Y-45744750D01*
X30384750Y-45586000D01*
X30169190Y-45586000D01*
X29935801Y-45682673D01*
X29757173Y-45861302D01*
X29660500Y-46094691D01*
X28488286Y-46094691D01*
X28569271Y-45973489D01*
X28683345Y-45400000D01*
X28569271Y-44826511D01*
X28244415Y-44340330D01*
X27929634Y-44130000D01*
X28244415Y-43919670D01*
X28360998Y-43745191D01*
X35629500Y-43745191D01*
X35629500Y-43985750D01*
X35788250Y-44144500D01*
X36512500Y-44144500D01*
X36512500Y-43395250D01*
X36766500Y-43395250D01*
X36766500Y-44144500D01*
X37490750Y-44144500D01*
X37649500Y-43985750D01*
X37649500Y-43745191D01*
X37552827Y-43511802D01*
X37374199Y-43333173D01*
X37140810Y-43236500D01*
X36925250Y-43236500D01*
X36766500Y-43395250D01*
X36512500Y-43395250D01*
X36353750Y-43236500D01*
X36138190Y-43236500D01*
X35904801Y-43333173D01*
X35726173Y-43511802D01*
X35629500Y-43745191D01*
X28360998Y-43745191D01*
X28569271Y-43433489D01*
X28683345Y-42860000D01*
X28569271Y-42286511D01*
X28244415Y-41800330D01*
X27929634Y-41590000D01*
X28218977Y-41396667D01*
X32846838Y-41396667D01*
X32988883Y-41740443D01*
X33251673Y-42003692D01*
X33595201Y-42146338D01*
X33967167Y-42146662D01*
X34310943Y-42004617D01*
X34574192Y-41741827D01*
X34716838Y-41398299D01*
X34717162Y-41026333D01*
X34575117Y-40682557D01*
X34312327Y-40419308D01*
X33968799Y-40276662D01*
X33596833Y-40276338D01*
X33253057Y-40418383D01*
X32989808Y-40681173D01*
X32847162Y-41024701D01*
X32846838Y-41396667D01*
X28218977Y-41396667D01*
X28244415Y-41379670D01*
X28569271Y-40893489D01*
X28683345Y-40320000D01*
X28569271Y-39746511D01*
X28244415Y-39260330D01*
X27929634Y-39050000D01*
X28244415Y-38839670D01*
X28343586Y-38691250D01*
X30295500Y-38691250D01*
X30295500Y-38931809D01*
X30392173Y-39165198D01*
X30570801Y-39343827D01*
X30804190Y-39440500D01*
X31019750Y-39440500D01*
X31178500Y-39281750D01*
X31178500Y-38532500D01*
X31432500Y-38532500D01*
X31432500Y-39281750D01*
X31591250Y-39440500D01*
X31806810Y-39440500D01*
X32040199Y-39343827D01*
X32218827Y-39165198D01*
X32315500Y-38931809D01*
X32315500Y-38691250D01*
X32188500Y-38564250D01*
X32835500Y-38564250D01*
X32835500Y-38804809D01*
X32932173Y-39038198D01*
X33110801Y-39216827D01*
X33344190Y-39313500D01*
X33559750Y-39313500D01*
X33718500Y-39154750D01*
X33718500Y-38405500D01*
X33972500Y-38405500D01*
X33972500Y-39154750D01*
X34131250Y-39313500D01*
X34346810Y-39313500D01*
X34580199Y-39216827D01*
X34758827Y-39038198D01*
X34855500Y-38804809D01*
X34855500Y-38564250D01*
X34696750Y-38405500D01*
X33972500Y-38405500D01*
X33718500Y-38405500D01*
X32994250Y-38405500D01*
X32835500Y-38564250D01*
X32188500Y-38564250D01*
X32156750Y-38532500D01*
X31432500Y-38532500D01*
X31178500Y-38532500D01*
X30454250Y-38532500D01*
X30295500Y-38691250D01*
X28343586Y-38691250D01*
X28569271Y-38353489D01*
X28683345Y-37780000D01*
X28607666Y-37399536D01*
X30398931Y-35608271D01*
X30485264Y-35479065D01*
X30543610Y-35518931D01*
X30585500Y-35527414D01*
X30585500Y-35972917D01*
X30479059Y-36041410D01*
X30334069Y-36253610D01*
X30283060Y-36505500D01*
X30283060Y-37305500D01*
X30327338Y-37540817D01*
X30393829Y-37644146D01*
X30392173Y-37645802D01*
X30295500Y-37879191D01*
X30295500Y-38119750D01*
X30454250Y-38278500D01*
X31178500Y-38278500D01*
X31178500Y-38258500D01*
X31432500Y-38258500D01*
X31432500Y-38278500D01*
X32156750Y-38278500D01*
X32315500Y-38119750D01*
X32315500Y-37879191D01*
X32218827Y-37645802D01*
X32217457Y-37644432D01*
X32276931Y-37557390D01*
X32327940Y-37305500D01*
X32327940Y-36505500D01*
X32283662Y-36270183D01*
X32144590Y-36054059D01*
X32105500Y-36027350D01*
X32105500Y-35530426D01*
X32130817Y-35525662D01*
X32346941Y-35386590D01*
X32491931Y-35174390D01*
X32542940Y-34922500D01*
X32542940Y-33236742D01*
X32609554Y-33303356D01*
X32577500Y-33464500D01*
X32635352Y-33755339D01*
X32648060Y-33774358D01*
X32648060Y-34922500D01*
X32692338Y-35157817D01*
X32831410Y-35373941D01*
X33043610Y-35518931D01*
X33085500Y-35527414D01*
X33085500Y-35871656D01*
X33019059Y-35914410D01*
X32874069Y-36126610D01*
X32823060Y-36378500D01*
X32823060Y-37178500D01*
X32867338Y-37413817D01*
X32933829Y-37517146D01*
X32932173Y-37518802D01*
X32835500Y-37752191D01*
X32835500Y-37992750D01*
X32994250Y-38151500D01*
X33718500Y-38151500D01*
X33718500Y-38131500D01*
X33972500Y-38131500D01*
X33972500Y-38151500D01*
X34696750Y-38151500D01*
X34855500Y-37992750D01*
X34855500Y-37752191D01*
X34758827Y-37518802D01*
X34757457Y-37517432D01*
X34816931Y-37430390D01*
X34867940Y-37178500D01*
X34867940Y-36378500D01*
X34823662Y-36143183D01*
X34684590Y-35927059D01*
X34605500Y-35873019D01*
X34605500Y-35530426D01*
X34630817Y-35525662D01*
X34846941Y-35386590D01*
X34991931Y-35174390D01*
X35042940Y-34922500D01*
X35042940Y-33649667D01*
X35387858Y-33649667D01*
X35529903Y-33993443D01*
X35792693Y-34256692D01*
X36136221Y-34399338D01*
X36508187Y-34399662D01*
X36851963Y-34257617D01*
X37115212Y-33994827D01*
X37199527Y-33791775D01*
X37367401Y-33623901D01*
X37528360Y-33383008D01*
X37656441Y-33300590D01*
X37801431Y-33088390D01*
X37852440Y-32836500D01*
X37852440Y-32036500D01*
X37808162Y-31801183D01*
X37741671Y-31697854D01*
X37743327Y-31696198D01*
X37840000Y-31462809D01*
X37840000Y-31222250D01*
X37681250Y-31063500D01*
X36957000Y-31063500D01*
X36957000Y-31083500D01*
X36703000Y-31083500D01*
X36703000Y-31063500D01*
X35978750Y-31063500D01*
X35820000Y-31222250D01*
X35820000Y-31462809D01*
X35916673Y-31696198D01*
X35918043Y-31697568D01*
X35858569Y-31784610D01*
X35807560Y-32036500D01*
X35807560Y-32665812D01*
X35794077Y-32671383D01*
X35530828Y-32934173D01*
X35388182Y-33277701D01*
X35387858Y-33649667D01*
X35042940Y-33649667D01*
X35042940Y-33022500D01*
X34998662Y-32787183D01*
X34859590Y-32571059D01*
X34647390Y-32426069D01*
X34395500Y-32375060D01*
X33830862Y-32375060D01*
X32939122Y-31483320D01*
X32939162Y-31437833D01*
X32797117Y-31094057D01*
X32534327Y-30830808D01*
X32190799Y-30688162D01*
X31818833Y-30687838D01*
X31475057Y-30829883D01*
X31211808Y-31092673D01*
X31069162Y-31436201D01*
X31068838Y-31808167D01*
X31124346Y-31942506D01*
X30911807Y-32154674D01*
X30820294Y-32375060D01*
X30795500Y-32375060D01*
X30621530Y-32407795D01*
X30621530Y-29383069D01*
X30728667Y-29383162D01*
X31072443Y-29241117D01*
X31335692Y-28978327D01*
X31478338Y-28634799D01*
X31478662Y-28262833D01*
X31336617Y-27919057D01*
X31073827Y-27655808D01*
X30730299Y-27513162D01*
X30621530Y-27513067D01*
X30621530Y-26414000D01*
X32829500Y-26414000D01*
X33120339Y-26356148D01*
X33246893Y-26271588D01*
X33332167Y-26271662D01*
X33675943Y-26129617D01*
X33939192Y-25866827D01*
X34081838Y-25523299D01*
X34082162Y-25151333D01*
X33940117Y-24807557D01*
X33677327Y-24544308D01*
X33490098Y-24466563D01*
X33368617Y-24172557D01*
X33105827Y-23909308D01*
X32762299Y-23766662D01*
X32686041Y-23766596D01*
X32670117Y-23728057D01*
X32407327Y-23464808D01*
X32091571Y-23333694D01*
X32044617Y-23220057D01*
X31781827Y-22956808D01*
X31438299Y-22814162D01*
X31066333Y-22813838D01*
X30722557Y-22955883D01*
X30655078Y-23023245D01*
X30536397Y-23046852D01*
X30527944Y-23052500D01*
X29083000Y-23052500D01*
X28792161Y-23110352D01*
X28545599Y-23275099D01*
X28291509Y-23529189D01*
X28569271Y-23113489D01*
X28683345Y-22540000D01*
X28569271Y-21966511D01*
X28244415Y-21480330D01*
X28222220Y-21465500D01*
X28375698Y-21401927D01*
X28554327Y-21223299D01*
X28651000Y-20989910D01*
X28651000Y-20285750D01*
X28492250Y-20127000D01*
X27127000Y-20127000D01*
X27127000Y-20147000D01*
X26873000Y-20147000D01*
X26873000Y-20127000D01*
X26853000Y-20127000D01*
X26853000Y-19873000D01*
X26873000Y-19873000D01*
X26873000Y-18660150D01*
X27127000Y-18660150D01*
X27127000Y-19873000D01*
X28492250Y-19873000D01*
X28651000Y-19714250D01*
X28651000Y-19010090D01*
X40649000Y-19010090D01*
X40649000Y-19714250D01*
X40807750Y-19873000D01*
X42173000Y-19873000D01*
X42173000Y-18660150D01*
X42014250Y-18501400D01*
X41157691Y-18501400D01*
X40924302Y-18598073D01*
X40745673Y-18776701D01*
X40649000Y-19010090D01*
X28651000Y-19010090D01*
X28554327Y-18776701D01*
X28375698Y-18598073D01*
X28142309Y-18501400D01*
X27285750Y-18501400D01*
X27127000Y-18660150D01*
X26873000Y-18660150D01*
X26714250Y-18501400D01*
X25983000Y-18501400D01*
X25983000Y-17907000D01*
X43359000Y-17907000D01*
X43359000Y-18501400D01*
X43359000Y-18501400D01*
G37*
X43359000Y-18501400D02*
X42585750Y-18501400D01*
X42427000Y-18660150D01*
X42427000Y-19873000D01*
X42447000Y-19873000D01*
X42447000Y-20127000D01*
X42427000Y-20127000D01*
X42427000Y-20147000D01*
X42173000Y-20147000D01*
X42173000Y-20127000D01*
X40807750Y-20127000D01*
X40649000Y-20285750D01*
X40649000Y-20989910D01*
X40745673Y-21223299D01*
X40924302Y-21401927D01*
X41077780Y-21465500D01*
X41055585Y-21480330D01*
X40730729Y-21966511D01*
X40723327Y-22003725D01*
X40374843Y-21655241D01*
X40128281Y-21490494D01*
X39837442Y-21432642D01*
X36451606Y-21432642D01*
X36419470Y-21400450D01*
X36075942Y-21257804D01*
X35703976Y-21257480D01*
X35360200Y-21399525D01*
X35096951Y-21662315D01*
X34954305Y-22005843D01*
X34953981Y-22377809D01*
X35013275Y-22521312D01*
X34896009Y-22803718D01*
X34895685Y-23175684D01*
X35037730Y-23519460D01*
X35300520Y-23782709D01*
X35392516Y-23820909D01*
X35442290Y-23941371D01*
X35365211Y-24018315D01*
X35337099Y-24037099D01*
X34959099Y-24415099D01*
X34798140Y-24655992D01*
X34670059Y-24738410D01*
X34525069Y-24950610D01*
X34474060Y-25202500D01*
X34474060Y-26002500D01*
X34518338Y-26237817D01*
X34585700Y-26342500D01*
X34267116Y-26342500D01*
X34220500Y-26333060D01*
X33470500Y-26333060D01*
X33235183Y-26377338D01*
X33019059Y-26516410D01*
X32874069Y-26728610D01*
X32823060Y-26980500D01*
X32823060Y-27780500D01*
X32831467Y-27825177D01*
X32745057Y-27860881D01*
X32481808Y-28123671D01*
X32339162Y-28467199D01*
X32338838Y-28839165D01*
X32480883Y-29182941D01*
X32743673Y-29446190D01*
X32863608Y-29495991D01*
X32867338Y-29515817D01*
X33006410Y-29731941D01*
X33218610Y-29876931D01*
X33470500Y-29927940D01*
X34220500Y-29927940D01*
X34455817Y-29883662D01*
X34671941Y-29744590D01*
X34816931Y-29532390D01*
X34867940Y-29280500D01*
X34867940Y-28824190D01*
X35004500Y-28824190D01*
X35004500Y-29114750D01*
X35163250Y-29273500D01*
X35764500Y-29273500D01*
X35764500Y-28474250D01*
X35605750Y-28315500D01*
X35513191Y-28315500D01*
X35279802Y-28412173D01*
X35101173Y-28590801D01*
X35004500Y-28824190D01*
X34867940Y-28824190D01*
X34867940Y-28480500D01*
X34823662Y-28245183D01*
X34749880Y-28130522D01*
X34802702Y-28053215D01*
X34869610Y-28098931D01*
X35121500Y-28149940D01*
X35871500Y-28149940D01*
X36106817Y-28105662D01*
X36255172Y-28010198D01*
X36285801Y-28040827D01*
X36519190Y-28137500D01*
X36734750Y-28137500D01*
X36893498Y-27978752D01*
X36893498Y-28121700D01*
X36852099Y-28163099D01*
X36687352Y-28409661D01*
X36665526Y-28519389D01*
X36641531Y-28554506D01*
X36499198Y-28412173D01*
X36265809Y-28315500D01*
X36173250Y-28315500D01*
X36014500Y-28474250D01*
X36014500Y-29273500D01*
X36036500Y-29273500D01*
X36036500Y-29527500D01*
X36014500Y-29527500D01*
X36014500Y-29547500D01*
X35764500Y-29547500D01*
X35764500Y-29527500D01*
X35163250Y-29527500D01*
X35004500Y-29686250D01*
X35004500Y-29976810D01*
X35101173Y-30210199D01*
X35279802Y-30388827D01*
X35513191Y-30485500D01*
X35605750Y-30485500D01*
X35762498Y-30328752D01*
X35762498Y-30485500D01*
X35820000Y-30485500D01*
X35820000Y-30650750D01*
X35978750Y-30809500D01*
X36703000Y-30809500D01*
X36703000Y-30789500D01*
X36957000Y-30789500D01*
X36957000Y-30809500D01*
X37681250Y-30809500D01*
X37840000Y-30650750D01*
X37840000Y-30460213D01*
X37874817Y-30453662D01*
X38090941Y-30314590D01*
X38235931Y-30102390D01*
X38270460Y-29931881D01*
X38270460Y-35156960D01*
X38328312Y-35447799D01*
X38493059Y-35694361D01*
X39435500Y-36636802D01*
X39435500Y-38367900D01*
X39493352Y-38658739D01*
X39658099Y-38905301D01*
X40692334Y-39939536D01*
X40616655Y-40320000D01*
X40730729Y-40893489D01*
X41055585Y-41379670D01*
X41370366Y-41590000D01*
X41055585Y-41800330D01*
X40730729Y-42286511D01*
X40616655Y-42860000D01*
X40730729Y-43433489D01*
X41055585Y-43919670D01*
X41370366Y-44130000D01*
X41055585Y-44340330D01*
X40730729Y-44826511D01*
X40616655Y-45400000D01*
X40730729Y-45973489D01*
X41055585Y-46459670D01*
X41370366Y-46670000D01*
X41055585Y-46880330D01*
X40730729Y-47366511D01*
X40616655Y-47940000D01*
X40730729Y-48513489D01*
X41055585Y-48999670D01*
X41166828Y-49074000D01*
X35199758Y-49074000D01*
X35381441Y-48957090D01*
X35526431Y-48744890D01*
X35577440Y-48493000D01*
X35577440Y-47433000D01*
X35533162Y-47197683D01*
X35395150Y-46983206D01*
X35353720Y-46774928D01*
X35381441Y-46757090D01*
X35526431Y-46544890D01*
X35530864Y-46523000D01*
X35736100Y-46523000D01*
X35800410Y-46622941D01*
X36012610Y-46767931D01*
X36264500Y-46818940D01*
X37014500Y-46818940D01*
X37152095Y-46793050D01*
X37188673Y-46829692D01*
X37532201Y-46972338D01*
X37904167Y-46972662D01*
X38247943Y-46830617D01*
X38511192Y-46567827D01*
X38653838Y-46224299D01*
X38654162Y-45852333D01*
X38512117Y-45508557D01*
X38249327Y-45245308D01*
X37905799Y-45102662D01*
X37604799Y-45102400D01*
X37589229Y-45091996D01*
X37551171Y-45032854D01*
X37552827Y-45031198D01*
X37649500Y-44797809D01*
X37649500Y-44557250D01*
X37490750Y-44398500D01*
X36766500Y-44398500D01*
X36766500Y-44418500D01*
X36512500Y-44418500D01*
X36512500Y-44398500D01*
X35788250Y-44398500D01*
X35629500Y-44557250D01*
X35629500Y-44797809D01*
X35714493Y-45003000D01*
X35534162Y-45003000D01*
X35533162Y-44997683D01*
X35394090Y-44781559D01*
X35181890Y-44636569D01*
X34930000Y-44585560D01*
X34280000Y-44585560D01*
X34044683Y-44629838D01*
X33828559Y-44768910D01*
X33683569Y-44981110D01*
X33655824Y-45118120D01*
X33633162Y-44997683D01*
X33494090Y-44781559D01*
X33281890Y-44636569D01*
X33030000Y-44585560D01*
X32380000Y-44585560D01*
X32144683Y-44629838D01*
X31928559Y-44768910D01*
X31783569Y-44981110D01*
X31732560Y-45233000D01*
X31732560Y-46293000D01*
X31776838Y-46528317D01*
X31915910Y-46744441D01*
X31956999Y-46772516D01*
X31956658Y-46773026D01*
X31913232Y-46991342D01*
X31783569Y-47181110D01*
X31757266Y-47311000D01*
X31612697Y-47311000D01*
X31680500Y-47147309D01*
X31680500Y-46906750D01*
X31521750Y-46748000D01*
X30797500Y-46748000D01*
X30797500Y-46768000D01*
X30543500Y-46768000D01*
X30543500Y-46748000D01*
X29819250Y-46748000D01*
X29660500Y-46906750D01*
X29660500Y-47130000D01*
X28411239Y-47130000D01*
X28244415Y-46880330D01*
X27929634Y-46670000D01*
X28244415Y-46459670D01*
X28488286Y-46094691D01*
X29660500Y-46094691D01*
X29660500Y-46335250D01*
X29819250Y-46494000D01*
X30543500Y-46494000D01*
X30543500Y-45744750D01*
X30797500Y-45744750D01*
X30797500Y-46494000D01*
X31521750Y-46494000D01*
X31680500Y-46335250D01*
X31680500Y-46094691D01*
X31583827Y-45861302D01*
X31405199Y-45682673D01*
X31171810Y-45586000D01*
X30956250Y-45586000D01*
X30797500Y-45744750D01*
X30543500Y-45744750D01*
X30384750Y-45586000D01*
X30169190Y-45586000D01*
X29935801Y-45682673D01*
X29757173Y-45861302D01*
X29660500Y-46094691D01*
X28488286Y-46094691D01*
X28569271Y-45973489D01*
X28683345Y-45400000D01*
X28569271Y-44826511D01*
X28244415Y-44340330D01*
X27929634Y-44130000D01*
X28244415Y-43919670D01*
X28360998Y-43745191D01*
X35629500Y-43745191D01*
X35629500Y-43985750D01*
X35788250Y-44144500D01*
X36512500Y-44144500D01*
X36512500Y-43395250D01*
X36766500Y-43395250D01*
X36766500Y-44144500D01*
X37490750Y-44144500D01*
X37649500Y-43985750D01*
X37649500Y-43745191D01*
X37552827Y-43511802D01*
X37374199Y-43333173D01*
X37140810Y-43236500D01*
X36925250Y-43236500D01*
X36766500Y-43395250D01*
X36512500Y-43395250D01*
X36353750Y-43236500D01*
X36138190Y-43236500D01*
X35904801Y-43333173D01*
X35726173Y-43511802D01*
X35629500Y-43745191D01*
X28360998Y-43745191D01*
X28569271Y-43433489D01*
X28683345Y-42860000D01*
X28569271Y-42286511D01*
X28244415Y-41800330D01*
X27929634Y-41590000D01*
X28218977Y-41396667D01*
X32846838Y-41396667D01*
X32988883Y-41740443D01*
X33251673Y-42003692D01*
X33595201Y-42146338D01*
X33967167Y-42146662D01*
X34310943Y-42004617D01*
X34574192Y-41741827D01*
X34716838Y-41398299D01*
X34717162Y-41026333D01*
X34575117Y-40682557D01*
X34312327Y-40419308D01*
X33968799Y-40276662D01*
X33596833Y-40276338D01*
X33253057Y-40418383D01*
X32989808Y-40681173D01*
X32847162Y-41024701D01*
X32846838Y-41396667D01*
X28218977Y-41396667D01*
X28244415Y-41379670D01*
X28569271Y-40893489D01*
X28683345Y-40320000D01*
X28569271Y-39746511D01*
X28244415Y-39260330D01*
X27929634Y-39050000D01*
X28244415Y-38839670D01*
X28343586Y-38691250D01*
X30295500Y-38691250D01*
X30295500Y-38931809D01*
X30392173Y-39165198D01*
X30570801Y-39343827D01*
X30804190Y-39440500D01*
X31019750Y-39440500D01*
X31178500Y-39281750D01*
X31178500Y-38532500D01*
X31432500Y-38532500D01*
X31432500Y-39281750D01*
X31591250Y-39440500D01*
X31806810Y-39440500D01*
X32040199Y-39343827D01*
X32218827Y-39165198D01*
X32315500Y-38931809D01*
X32315500Y-38691250D01*
X32188500Y-38564250D01*
X32835500Y-38564250D01*
X32835500Y-38804809D01*
X32932173Y-39038198D01*
X33110801Y-39216827D01*
X33344190Y-39313500D01*
X33559750Y-39313500D01*
X33718500Y-39154750D01*
X33718500Y-38405500D01*
X33972500Y-38405500D01*
X33972500Y-39154750D01*
X34131250Y-39313500D01*
X34346810Y-39313500D01*
X34580199Y-39216827D01*
X34758827Y-39038198D01*
X34855500Y-38804809D01*
X34855500Y-38564250D01*
X34696750Y-38405500D01*
X33972500Y-38405500D01*
X33718500Y-38405500D01*
X32994250Y-38405500D01*
X32835500Y-38564250D01*
X32188500Y-38564250D01*
X32156750Y-38532500D01*
X31432500Y-38532500D01*
X31178500Y-38532500D01*
X30454250Y-38532500D01*
X30295500Y-38691250D01*
X28343586Y-38691250D01*
X28569271Y-38353489D01*
X28683345Y-37780000D01*
X28607666Y-37399536D01*
X30398931Y-35608271D01*
X30485264Y-35479065D01*
X30543610Y-35518931D01*
X30585500Y-35527414D01*
X30585500Y-35972917D01*
X30479059Y-36041410D01*
X30334069Y-36253610D01*
X30283060Y-36505500D01*
X30283060Y-37305500D01*
X30327338Y-37540817D01*
X30393829Y-37644146D01*
X30392173Y-37645802D01*
X30295500Y-37879191D01*
X30295500Y-38119750D01*
X30454250Y-38278500D01*
X31178500Y-38278500D01*
X31178500Y-38258500D01*
X31432500Y-38258500D01*
X31432500Y-38278500D01*
X32156750Y-38278500D01*
X32315500Y-38119750D01*
X32315500Y-37879191D01*
X32218827Y-37645802D01*
X32217457Y-37644432D01*
X32276931Y-37557390D01*
X32327940Y-37305500D01*
X32327940Y-36505500D01*
X32283662Y-36270183D01*
X32144590Y-36054059D01*
X32105500Y-36027350D01*
X32105500Y-35530426D01*
X32130817Y-35525662D01*
X32346941Y-35386590D01*
X32491931Y-35174390D01*
X32542940Y-34922500D01*
X32542940Y-33236742D01*
X32609554Y-33303356D01*
X32577500Y-33464500D01*
X32635352Y-33755339D01*
X32648060Y-33774358D01*
X32648060Y-34922500D01*
X32692338Y-35157817D01*
X32831410Y-35373941D01*
X33043610Y-35518931D01*
X33085500Y-35527414D01*
X33085500Y-35871656D01*
X33019059Y-35914410D01*
X32874069Y-36126610D01*
X32823060Y-36378500D01*
X32823060Y-37178500D01*
X32867338Y-37413817D01*
X32933829Y-37517146D01*
X32932173Y-37518802D01*
X32835500Y-37752191D01*
X32835500Y-37992750D01*
X32994250Y-38151500D01*
X33718500Y-38151500D01*
X33718500Y-38131500D01*
X33972500Y-38131500D01*
X33972500Y-38151500D01*
X34696750Y-38151500D01*
X34855500Y-37992750D01*
X34855500Y-37752191D01*
X34758827Y-37518802D01*
X34757457Y-37517432D01*
X34816931Y-37430390D01*
X34867940Y-37178500D01*
X34867940Y-36378500D01*
X34823662Y-36143183D01*
X34684590Y-35927059D01*
X34605500Y-35873019D01*
X34605500Y-35530426D01*
X34630817Y-35525662D01*
X34846941Y-35386590D01*
X34991931Y-35174390D01*
X35042940Y-34922500D01*
X35042940Y-33649667D01*
X35387858Y-33649667D01*
X35529903Y-33993443D01*
X35792693Y-34256692D01*
X36136221Y-34399338D01*
X36508187Y-34399662D01*
X36851963Y-34257617D01*
X37115212Y-33994827D01*
X37199527Y-33791775D01*
X37367401Y-33623901D01*
X37528360Y-33383008D01*
X37656441Y-33300590D01*
X37801431Y-33088390D01*
X37852440Y-32836500D01*
X37852440Y-32036500D01*
X37808162Y-31801183D01*
X37741671Y-31697854D01*
X37743327Y-31696198D01*
X37840000Y-31462809D01*
X37840000Y-31222250D01*
X37681250Y-31063500D01*
X36957000Y-31063500D01*
X36957000Y-31083500D01*
X36703000Y-31083500D01*
X36703000Y-31063500D01*
X35978750Y-31063500D01*
X35820000Y-31222250D01*
X35820000Y-31462809D01*
X35916673Y-31696198D01*
X35918043Y-31697568D01*
X35858569Y-31784610D01*
X35807560Y-32036500D01*
X35807560Y-32665812D01*
X35794077Y-32671383D01*
X35530828Y-32934173D01*
X35388182Y-33277701D01*
X35387858Y-33649667D01*
X35042940Y-33649667D01*
X35042940Y-33022500D01*
X34998662Y-32787183D01*
X34859590Y-32571059D01*
X34647390Y-32426069D01*
X34395500Y-32375060D01*
X33830862Y-32375060D01*
X32939122Y-31483320D01*
X32939162Y-31437833D01*
X32797117Y-31094057D01*
X32534327Y-30830808D01*
X32190799Y-30688162D01*
X31818833Y-30687838D01*
X31475057Y-30829883D01*
X31211808Y-31092673D01*
X31069162Y-31436201D01*
X31068838Y-31808167D01*
X31124346Y-31942506D01*
X30911807Y-32154674D01*
X30820294Y-32375060D01*
X30795500Y-32375060D01*
X30621530Y-32407795D01*
X30621530Y-29383069D01*
X30728667Y-29383162D01*
X31072443Y-29241117D01*
X31335692Y-28978327D01*
X31478338Y-28634799D01*
X31478662Y-28262833D01*
X31336617Y-27919057D01*
X31073827Y-27655808D01*
X30730299Y-27513162D01*
X30621530Y-27513067D01*
X30621530Y-26414000D01*
X32829500Y-26414000D01*
X33120339Y-26356148D01*
X33246893Y-26271588D01*
X33332167Y-26271662D01*
X33675943Y-26129617D01*
X33939192Y-25866827D01*
X34081838Y-25523299D01*
X34082162Y-25151333D01*
X33940117Y-24807557D01*
X33677327Y-24544308D01*
X33490098Y-24466563D01*
X33368617Y-24172557D01*
X33105827Y-23909308D01*
X32762299Y-23766662D01*
X32686041Y-23766596D01*
X32670117Y-23728057D01*
X32407327Y-23464808D01*
X32091571Y-23333694D01*
X32044617Y-23220057D01*
X31781827Y-22956808D01*
X31438299Y-22814162D01*
X31066333Y-22813838D01*
X30722557Y-22955883D01*
X30655078Y-23023245D01*
X30536397Y-23046852D01*
X30527944Y-23052500D01*
X29083000Y-23052500D01*
X28792161Y-23110352D01*
X28545599Y-23275099D01*
X28291509Y-23529189D01*
X28569271Y-23113489D01*
X28683345Y-22540000D01*
X28569271Y-21966511D01*
X28244415Y-21480330D01*
X28222220Y-21465500D01*
X28375698Y-21401927D01*
X28554327Y-21223299D01*
X28651000Y-20989910D01*
X28651000Y-20285750D01*
X28492250Y-20127000D01*
X27127000Y-20127000D01*
X27127000Y-20147000D01*
X26873000Y-20147000D01*
X26873000Y-20127000D01*
X26853000Y-20127000D01*
X26853000Y-19873000D01*
X26873000Y-19873000D01*
X26873000Y-18660150D01*
X27127000Y-18660150D01*
X27127000Y-19873000D01*
X28492250Y-19873000D01*
X28651000Y-19714250D01*
X28651000Y-19010090D01*
X40649000Y-19010090D01*
X40649000Y-19714250D01*
X40807750Y-19873000D01*
X42173000Y-19873000D01*
X42173000Y-18660150D01*
X42014250Y-18501400D01*
X41157691Y-18501400D01*
X40924302Y-18598073D01*
X40745673Y-18776701D01*
X40649000Y-19010090D01*
X28651000Y-19010090D01*
X28554327Y-18776701D01*
X28375698Y-18598073D01*
X28142309Y-18501400D01*
X27285750Y-18501400D01*
X27127000Y-18660150D01*
X26873000Y-18660150D01*
X26714250Y-18501400D01*
X25983000Y-18501400D01*
X25983000Y-17907000D01*
X43359000Y-17907000D01*
X43359000Y-18501400D01*
G36*
X37147500Y-26975500D02*
X37167500Y-26975500D01*
X37167500Y-27229500D01*
X37147500Y-27229500D01*
X37147500Y-27249500D01*
X36893500Y-27249500D01*
X36893500Y-27229500D01*
X36873500Y-27229500D01*
X36873500Y-26975500D01*
X36893500Y-26975500D01*
X36893500Y-26955500D01*
X37147500Y-26955500D01*
X37147500Y-26975500D01*
X37147500Y-26975500D01*
G37*
X37147500Y-26975500D02*
X37167500Y-26975500D01*
X37167500Y-27229500D01*
X37147500Y-27229500D01*
X37147500Y-27249500D01*
X36893500Y-27249500D01*
X36893500Y-27229500D01*
X36873500Y-27229500D01*
X36873500Y-26975500D01*
X36893500Y-26975500D01*
X36893500Y-26955500D01*
X37147500Y-26955500D01*
X37147500Y-26975500D01*
M02*
